<?xml version="1.0" encoding="utf-8"?>
<!-- Generator: Adobe Illustrator 28.1.0, SVG Export Plug-In . SVG Version: 6.00 Build 0)  -->
<svg version="1.1" id="Слой_1" xmlns="http://www.w3.org/2000/svg" xmlns:xlink="http://www.w3.org/1999/xlink" x="0px" y="0px"
	 viewBox="0 0 300 300" style="enable-background:new 0 0 300 300;" xml:space="preserve">
<style type="text/css">
	.st0{display:none;}
	.st1{fill:#FFFFFF;}
	.st2{display:inline;fill:#013F28;}
	.st3{display:inline;fill:url(#SVGID_1_);}
	.st4{display:inline;fill:url(#SVGID_00000031202046222633170850000004925724047307854760_);}
	.st5{display:inline;fill:url(#SVGID_00000082360108494914813380000011100228808818744983_);}
	.st6{display:inline;fill:#197437;}
	.st7{display:inline;}
	.st8{fill:#197437;}
	.st9{fill:url(#SVGID_00000179639068922727971680000007591813977095843729_);}
	.st10{fill:url(#SVGID_00000103952306163133937630000010092096852305391513_);}
	.st11{fill:url(#SVGID_00000094582554406365105950000017737401503067641534_);}
	.st12{fill:url(#SVGID_00000077313086300995445000000014122818532574016414_);}
	.st13{fill:url(#SVGID_00000136407889172668612680000007144602825422949794_);}
	.st14{display:inline;fill:url(#SVGID_00000097465293923669852130000015565349333110754447_);}
	.st15{display:inline;fill:#68B648;}
	.st16{display:inline;fill:url(#SVGID_00000170963911573192575640000007607729062675568259_);}
</style>
<g id="Слой_1_00000029043877257194945170000004268009622363471284_" class="st0">
	
		<image style="display:inline;overflow:visible;enable-background:new    ;" width="1254" height="1254" xlink:href="DE73D472.jpg"  transform="matrix(0.2398 0 0 0.2398 -3 -1)">
	</image>
</g>
<g id="Text">
	<polygon class="st1" points="34,231 34,237 46,237 46,243 34,243 34,249 48,249 48,255 27,255 27,225 48,225 48,231 	"/>
	<polygon class="st1" points="263,231 263,237 275,237 275,243 263,243 263,249 277,249 277,255 256,255 256,225 277,225 277,231 	
		"/>
	<path class="st1" d="M125,225h-7l-11.8,30h6.8l2-6h13l2.4,6h7.2L125,225z M117,243l4.5-11.5L126,243H117z"/>
	<polygon class="st1" points="147,231 147,238 159,238 159,244 147,244 147,255 141,255 141,225 161,225 161,231 	"/>
	<path class="st1" d="M97,225H83v30h6.4v-8.7h7.3c0,0,9.5-0.3,9.5-10.3S97,225,97,225z M94.5,241h-5.2v-11h5.2
		c1.5,0,2.9,0.6,3.9,1.6s1.6,2.4,1.6,3.9C100,238.5,97.5,241,94.5,241z"/>
	<polygon class="st1" points="79.9,255 71.7,255 65.3,243.9 58.3,255 51.2,255 61.6,240 51,225 51,225 58.7,225 65.3,235.5 
		71.9,225 79.3,225 69,240 	"/>
	<path class="st1" d="M179,225c-8.3,0-15,6.7-15,15s6.7,15,15,15s15-6.7,15-15S187.3,225,179,225z M179,248.8
		c-4.6,0-8.3-3.9-8.3-8.8c0-4.9,3.7-8.8,8.3-8.8s8.3,3.9,8.3,8.8C187.3,244.9,183.6,248.8,179,248.8z"/>
	<path class="st1" d="M248.1,246.1l3.9,4c-2.7,3-6.7,4.8-11,4.8c-8.3,0-15-6.7-15-15s6.7-15,15-15c4.4,0,8.3,1.9,11.1,4.9l-4,4
		c-1.6-2.4-4.2-3.9-7.1-3.9c-5,0-9,4.5-9,10s4,10,9,10C243.9,250,246.5,248.5,248.1,246.1z"/>
	<path class="st1" d="M216.1,245c2.5-1.3,5.1-3.8,5.1-9c0-10-9.2-11-9.2-11h-14v30h6.4v-8.7h5.5l5.7,8.7h7.5L216.1,245z M204.3,241
		v-11h5.2c1.5,0,2.9,0.6,3.9,1.6s1.6,2.4,1.6,3.9c0,3-2.5,5.5-5.5,5.5H204.3z"/>
</g>
<g id="backing">
	<path class="st1" d="M95,162l-5,5l2,19l17.6,27H135c0,0-5-12-14-9c-5-14-7-19-7-19l20-16L95,162z"/>
	<path class="st1" d="M224,178l-16,20h-15.9l7.9-17l4-4l-14-17l16-12l11-8c0,0,6,27,7,30.4C225,173.9,224,178,224,178z"/>
	<path class="st1" d="M276.6,100c0,0-1.6-1-16.6-12.5c2-6.5-3-9.5-3-9.5l-8.7-7.5c0,0,1.4-4,0.8-7.3c-0.2-1.7-1-3.2-2.5-3.9
		c-0.3-0.2-0.5-0.3-0.8-0.4c-0.1-0.1-0.3-0.1-0.4-0.2c-0.3-0.1-0.5-0.2-0.8-0.2c-0.1,0-0.3,0-0.4-0.1c-0.4-0.1-0.8-0.1-1.1,0
		c-4.1,0.2-7.2,4.6-7.2,4.6l-7.1-0.5l-7-0.5l-0.1,0c0,0,0.2-7.5-8-8c-0.2,0-0.5,0-0.7,0c-0.3,0-0.5,0-0.8,0c-4,0.3-6.2,3-7.6,5.9
		l0,0c-5.3-1.6-10-3-14.2-4.3c-3.6-1.1-6.8-2.1-9.7-3c-3.2-1-6-1.9-8.4-2.7c-1.2-0.4-2.3-0.8-3.2-1.1c-0.3-0.1-0.5-0.2-0.8-0.2
		c-1-0.3-1.8-0.6-2.6-0.9c0,0-0.1,0-0.1,0c-0.2-0.1-0.5-0.2-0.7-0.2c0,0,0,0,0,0c-0.5-0.2-0.9-0.3-1.2-0.4c-0.3-0.1-0.5-0.2-0.8-0.3
		c-0.3-0.1-0.5-0.2-0.7-0.2c-0.3-0.1-0.5-0.2-0.5-0.2l-0.1,0L143,56l-4,6l-38.7,26l-27.7,12l-18.5,32.5L53,155l-14,22l-5,29l4,7h23
		c0,0-4-12-10-9c-1-1-1-1-1-1l10-19l18-11l16-17l41,9l-8.1-15.6L131,101l1.2,49l29.4,63h30.5l-6.1-8c0,0-1.3-2.5-5.3-2.7
		c-0.4,0-0.9,0-1.4,0c-0.7,0-1.5,0.1-2.3,0.3c0,0,0,0,0,0c-4-23.6-6-35.6-6-35.6l11-43.4l-5,40.4l42-32c0,0,16-4,26-10
		c15,1,17,1,17,1l7-7l3-4l6-11L276.6,100z M208,76c-3-12,4-26,13-9C214,72,208,76,208,76z M240,89l-6-6h10.6l5.4,7L240,89z"/>
</g>
<g id="darks" class="st0">
	<path class="st2" d="M39,177l-5,29l4,7h23c0,0-4-12-10-9c-1-1-1-1-1-1l10-19l18-11l16-17l41,9l-8.1-15.6L131,101l-13,39l-24,11v-31
		l-29,44L39,177z"/>
	<path class="st2" d="M95,162l-5,5l2,19l17.6,27H135c0,0-5-12-14-9c-5-14-7-19-7-19l20-16L95,162z"/>
	<path class="st2" d="M182,93v30.6l-5,40.4l42-32c0,0,16-4,26-10c15,1,17,1,17,1l7-7l3-4l-2-1c0,0-3,7-35,7c-25-10-27-11-27-11
		l-7-19l1,23l-10,13L182,93z"/>
	<polygon class="st2" points="234,83 240,89 250,90 244.6,83 	"/>
	<path class="st2" d="M221,67c-7,5-13,9-13,9C205,64,212,50,221,67z"/>
	<polygon class="st2" points="190,160 206,148 211,158 208,177 208,198 192.1,198 200,181 204,177 	"/>
</g>
<g id="dark-mid_gradient" class="st0">
	
		<linearGradient id="SVGID_1_" gradientUnits="userSpaceOnUse" x1="129.0447" y1="193.8614" x2="159.289" y2="87.8443" gradientTransform="matrix(1 0 0 -1 0 300)">
		<stop  offset="0" style="stop-color:#328D3D"/>
		<stop  offset="5.413657e-02" style="stop-color:#277B38"/>
		<stop  offset="0.1404" style="stop-color:#196532"/>
		<stop  offset="0.2418" style="stop-color:#0E542E"/>
		<stop  offset="0.3664" style="stop-color:#07482A"/>
		<stop  offset="0.5394" style="stop-color:#024129"/>
		<stop  offset="1" style="stop-color:#013F28"/>
	</linearGradient>
	<polygon class="st3" points="161.6,213 165.7,213 151.2,151 131,101 132.2,150 	"/>
	
		<linearGradient id="SVGID_00000096038125331113393880000014598629495194662810_" gradientUnits="userSpaceOnUse" x1="195.382" y1="209.6043" x2="200.6319" y2="177.4861" gradientTransform="matrix(1 0 0 -1 0 300)">
		<stop  offset="0" style="stop-color:#328D3D"/>
		<stop  offset="7.402951e-02" style="stop-color:#2B823A"/>
		<stop  offset="0.3131" style="stop-color:#196532"/>
		<stop  offset="0.5498" style="stop-color:#0C502D"/>
		<stop  offset="0.7809" style="stop-color:#044329"/>
		<stop  offset="1" style="stop-color:#013F28"/>
	</linearGradient>
	<polygon style="display:inline;fill:url(#SVGID_00000096038125331113393880000014598629495194662810_);" points="192,124 202,111 
		201,88 207,77 204.8,76 182,93 	"/>
	
		<linearGradient id="SVGID_00000090276042369558266310000016940290992317312408_" gradientUnits="userSpaceOnUse" x1="228.5092" y1="108.7231" x2="217.5539" y2="82.6709">
		<stop  offset="0" style="stop-color:#328D3D"/>
		<stop  offset="2.487183e-02" style="stop-color:#308A3C"/>
		<stop  offset="0.293" style="stop-color:#1C6933"/>
		<stop  offset="0.5511" style="stop-color:#0D522D"/>
		<stop  offset="0.7923" style="stop-color:#044429"/>
		<stop  offset="1" style="stop-color:#013F28"/>
	</linearGradient>
	<polygon style="display:inline;fill:url(#SVGID_00000090276042369558266310000016940290992317312408_);" points="240,89 
		220.5,112.2 208,107 234,83 	"/>
</g>
<g id="mid" class="st0">
	<polygon class="st6" points="39,177 65,164 94,120 100.3,88 54.1,132.5 53,155 	"/>
	<polygon class="st6" points="94,151 94,120 139,62 131,101 118,140 	"/>
	<path class="st6" d="M182,123.6L131,101l20.2,50l14.4,62H192l-6.1-8c0,0-2-3.9-9-2.4c-4-23.6-6-35.6-6-35.6L182,123.6z"/>
	<polygon class="st6" points="158,58 182,93 182,123.6 	"/>
	<path class="st6" d="M260,115.8c-12,3.2-25,2.2-25,2.2l-14.5-5.8L240,89l10,1l-9.7,23.5C240.3,113.5,245,114,260,115.8z"/>
	<path class="st6" d="M208,198l16-20c0,0,1-4.1,0-7.6s-7-30.4-7-30.4l-11,8l5,10l-3,19V198z"/>
	<path class="st6" d="M236,63l4,0.3l8.3,7.2c0,0,3-8.8-1.7-11.2C241,56,236,63,236,63z"/>
</g>
<g id="mid-light_gradient" class="st0">
	<g class="st7">
		<polygon class="st8" points="158,58 182,123.6 131,101 		"/>
		<polygon class="st8" points="234,83 208,107 201,88 207,77 208,76 215.4,70.5 		"/>
		<path class="st8" d="M270,111c-1,3-10,4.8-10,4.8l-19.7-2.3L250,90l14.3,10l-0.3,5l2,3L270,111z"/>
		<polygon class="st8" points="54.1,132.5 72.6,100 100.3,88 		"/>
		<polygon class="st8" points="182,93 158,58 161.6,46.3 203,66 204.8,76 		"/>
	</g>
	<g class="st7">
		
			<linearGradient id="SVGID_00000052807626904270212910000013566777249561212046_" gradientUnits="userSpaceOnUse" x1="176.9448" y1="213.1064" x2="132.4944" y2="188.1031" gradientTransform="matrix(1 0 0 -1 0 300)">
			<stop  offset="0" style="stop-color:#69B644"/>
			<stop  offset="8.620949e-02" style="stop-color:#5CAC42"/>
			<stop  offset="0.3221" style="stop-color:#3F933D"/>
			<stop  offset="0.5557" style="stop-color:#2A823A"/>
			<stop  offset="0.7838" style="stop-color:#1D7838"/>
			<stop  offset="1" style="stop-color:#197437"/>
		</linearGradient>
		<polygon style="fill:url(#SVGID_00000052807626904270212910000013566777249561212046_);" points="158,58 182,123.6 131,101 		"/>
		
			<linearGradient id="SVGID_00000072267887329094539600000011968065729106294680_" gradientUnits="userSpaceOnUse" x1="232.6752" y1="223.0485" x2="198.3741" y2="203.7542" gradientTransform="matrix(1 0 0 -1 0 300)">
			<stop  offset="0" style="stop-color:#69B644"/>
			<stop  offset="8.620949e-02" style="stop-color:#5CAC42"/>
			<stop  offset="0.3221" style="stop-color:#3F933D"/>
			<stop  offset="0.5557" style="stop-color:#2A823A"/>
			<stop  offset="0.7838" style="stop-color:#1D7838"/>
			<stop  offset="1" style="stop-color:#197437"/>
		</linearGradient>
		<polygon style="fill:url(#SVGID_00000072267887329094539600000011968065729106294680_);" points="234,83 208,107 201,88 207,77 
			208,76 215.4,70.5 		"/>
		
			<linearGradient id="SVGID_00000016773634408973673840000002988647802183868561_" gradientUnits="userSpaceOnUse" x1="264.9643" y1="201.8403" x2="237.4528" y2="186.365" gradientTransform="matrix(1 0 0 -1 0 300)">
			<stop  offset="0" style="stop-color:#69B644"/>
			<stop  offset="8.620949e-02" style="stop-color:#5CAC42"/>
			<stop  offset="0.3221" style="stop-color:#3F933D"/>
			<stop  offset="0.5557" style="stop-color:#2A823A"/>
			<stop  offset="0.7838" style="stop-color:#1D7838"/>
			<stop  offset="1" style="stop-color:#197437"/>
		</linearGradient>
		<path style="fill:url(#SVGID_00000016773634408973673840000002988647802183868561_);" d="M270,111c-1,3-10,4.8-10,4.8l-19.7-2.3
			L250,90l14.3,10l-0.3,5l2,3L270,111z"/>
		
			<linearGradient id="SVGID_00000020363874650585954540000012696626974500115884_" gradientUnits="userSpaceOnUse" x1="106.3621" y1="207.9443" x2="44.4868" y2="173.1395" gradientTransform="matrix(1 0 0 -1 0 300)">
			<stop  offset="0" style="stop-color:#69B644"/>
			<stop  offset="8.620949e-02" style="stop-color:#5CAC42"/>
			<stop  offset="0.3221" style="stop-color:#3F933D"/>
			<stop  offset="0.5557" style="stop-color:#2A823A"/>
			<stop  offset="0.7838" style="stop-color:#1D7838"/>
			<stop  offset="1" style="stop-color:#197437"/>
		</linearGradient>
		<polygon style="fill:url(#SVGID_00000020363874650585954540000012696626974500115884_);" points="54.1,132.5 72.6,100 100.3,88 		
			"/>
		
			<linearGradient id="SVGID_00000081650242302644402960000006241840910701808528_" gradientUnits="userSpaceOnUse" x1="174.3298" y1="250.4727" x2="189.3496" y2="220.1109" gradientTransform="matrix(1 0 0 -1 0 300)">
			<stop  offset="0" style="stop-color:#69B644"/>
			<stop  offset="0.203" style="stop-color:#5FAE42"/>
			<stop  offset="0.5437" style="stop-color:#45993E"/>
			<stop  offset="0.9778" style="stop-color:#1B7637"/>
			<stop  offset="1" style="stop-color:#197437"/>
		</linearGradient>
		<polygon style="fill:url(#SVGID_00000081650242302644402960000006241840910701808528_);" points="182,93 158,58 161.6,46.3 
			203,66 204.8,76 		"/>
	</g>
</g>
<g id="light" class="st0">
	
		<linearGradient id="SVGID_00000015326196145876668720000017820582543888991932_" gradientUnits="userSpaceOnUse" x1="130.0414" y1="243.1337" x2="93.8968" y2="180.0591" gradientTransform="matrix(1 0 0 -1 0 300)">
		<stop  offset="0.2426" style="stop-color:#69B644"/>
		<stop  offset="0.3079" style="stop-color:#5CAC42"/>
		<stop  offset="0.4866" style="stop-color:#3F933D"/>
		<stop  offset="0.6635" style="stop-color:#2A823A"/>
		<stop  offset="0.8362" style="stop-color:#1D7838"/>
		<stop  offset="1" style="stop-color:#197437"/>
	</linearGradient>
	<polygon style="display:inline;fill:url(#SVGID_00000015326196145876668720000017820582543888991932_);" points="94,120 139,62 
		100.3,88 	"/>
	<polygon class="st15" points="131,101 139,62 143,56 161.6,46.3 158,58 	"/>
	<path class="st15" d="M276.6,100h-12.2L250,90l-5.4-7H234l-18.6-12.5L221,67l0.8-5v0l7,0.5l11.2,0.8l8.3,7.2L257,78c0,0,5,3,3,9.5
		C275,99,276.6,100,276.6,100z"/>
	<polygon class="st2" points="276.6,100 264.3,100 264,105 266,108 270,111 272,112 278,101 	"/>
	<path class="st15" d="M161.6,46.3L203,66c0,0,0.2-2.3,2-6C173.2,50.7,161.6,46.3,161.6,46.3z"/>
	
		<linearGradient id="SVGID_00000083089613060861701730000007781889129551711408_" gradientUnits="userSpaceOnUse" x1="217.6811" y1="245.0338" x2="205.394" y2="223.6585" gradientTransform="matrix(1 0 0 -1 0 300)">
		<stop  offset="0" style="stop-color:#69B644"/>
		<stop  offset="8.620949e-02" style="stop-color:#5CAC42"/>
		<stop  offset="0.3221" style="stop-color:#3F933D"/>
		<stop  offset="0.5557" style="stop-color:#2A823A"/>
		<stop  offset="0.7838" style="stop-color:#1D7838"/>
		<stop  offset="1" style="stop-color:#197437"/>
	</linearGradient>
	<path style="display:inline;fill:url(#SVGID_00000083089613060861701730000007781889129551711408_);" d="M208,76l-1,1l-2.2-1
		L203,66c0,0,1-12,10-12s8.8,8,8.8,8l-0.8,5c0,0-5-10-10-7C206,65,208,76,208,76z"/>
</g>
</svg>
