<?xml version="1.0" encoding="UTF-8"?>
<svg xmlns="http://www.w3.org/2000/svg" xmlns:xlink="http://www.w3.org/1999/xlink" viewBox="0 0 300.72 300.72">
  <defs>
    <style>
      .cls-1 {
        fill: #197437;
      }

      .cls-1, .cls-2, .cls-3, .cls-4, .cls-5, .cls-6, .cls-7, .cls-8, .cls-9, .cls-10, .cls-11, .cls-12, .cls-13 {
        stroke-width: 0px;
      }

      .cls-2 {
        fill: url(#_Безымянный_градиент_19-3);
      }

      .cls-3 {
        fill: #68b648;
      }

      .cls-4 {
        fill: url(#_Безымянный_градиент_19-5);
      }

      .cls-5 {
        fill: url(#_Безымянный_градиент_9);
      }

      .cls-6 {
        fill: url(#_Безымянный_градиент_24);
      }

      .cls-7 {
        fill: url(#_Безымянный_градиент_19-4);
      }

      .cls-8 {
        fill: url(#_Безымянный_градиент_22);
      }

      .cls-9 {
        fill: url(#_Безымянный_градиент_19-2);
      }

      .cls-10 {
        fill: #013f28;
      }

      .cls-11 {
        fill: url(#_Безымянный_градиент_20);
      }

      .cls-12 {
        fill: url(#_Безымянный_градиент_19);
      }

      .cls-13 {
        fill: url(#_Безымянный_градиент_11);
      }
    </style>
    <linearGradient id="_Безымянный_градиент_9" data-name="Безымянный градиент 9" x1="132.05" y1="107.14" x2="162.29" y2="213.15" gradientUnits="userSpaceOnUse">
      <stop offset="0" stop-color="#328d3d"/>
      <stop offset=".05" stop-color="#267a38"/>
      <stop offset=".14" stop-color="#186432"/>
      <stop offset=".24" stop-color="#0e532d"/>
      <stop offset=".37" stop-color="#06472a"/>
      <stop offset=".54" stop-color="#024028"/>
      <stop offset="1" stop-color="#013f28"/>
    </linearGradient>
    <linearGradient id="_Безымянный_градиент_11" data-name="Безымянный градиент 11" x1="198.38" y1="91.4" x2="203.63" y2="123.51" gradientUnits="userSpaceOnUse">
      <stop offset="0" stop-color="#328d3d"/>
      <stop offset=".07" stop-color="#2b823a"/>
      <stop offset=".31" stop-color="#186432"/>
      <stop offset=".55" stop-color="#0b4f2c"/>
      <stop offset=".78" stop-color="#034329"/>
      <stop offset="1" stop-color="#013f28"/>
    </linearGradient>
    <linearGradient id="_Безымянный_градиент_20" data-name="Безымянный градиент 20" x1="233.8" y1="82.82" x2="217.54" y2="121.51" gradientUnits="userSpaceOnUse">
      <stop offset="0" stop-color="#328d3d"/>
      <stop offset=".02" stop-color="#2f893c"/>
      <stop offset=".29" stop-color="#1b6933"/>
      <stop offset=".55" stop-color="#0c512d"/>
      <stop offset=".79" stop-color="#044329"/>
      <stop offset="1" stop-color="#013f28"/>
    </linearGradient>
    <linearGradient id="_Безымянный_градиент_19" data-name="Безымянный градиент 19" x1="179.94" y1="87.88" x2="135.48" y2="112.88" gradientUnits="userSpaceOnUse">
      <stop offset="0" stop-color="#69b644"/>
      <stop offset=".09" stop-color="#5cab41"/>
      <stop offset=".32" stop-color="#3e933d"/>
      <stop offset=".56" stop-color="#298139"/>
      <stop offset=".78" stop-color="#1d7737"/>
      <stop offset="1" stop-color="#197437"/>
    </linearGradient>
    <linearGradient id="_Безымянный_градиент_19-2" data-name="Безымянный градиент 19" x1="235.68" y1="77.95" x2="201.38" y2="97.25" xlink:href="#_Безымянный_градиент_19"/>
    <linearGradient id="_Безымянный_градиент_19-3" data-name="Безымянный градиент 19" x1="267.9" y1="99.05" x2="240.39" y2="114.52" xlink:href="#_Безымянный_градиент_19"/>
    <linearGradient id="_Безымянный_градиент_19-4" data-name="Безымянный градиент 19" x1="109.37" y1="93.06" x2="47.49" y2="127.87" xlink:href="#_Безымянный_градиент_19"/>
    <linearGradient id="_Безымянный_градиент_19-5" data-name="Безымянный градиент 19" x1="220.68" y1="55.97" x2="208.39" y2="77.35" xlink:href="#_Безымянный_градиент_19"/>
    <linearGradient id="_Безымянный_градиент_22" data-name="Безымянный градиент 22" x1="177.33" y1="50.53" x2="192.35" y2="80.89" gradientUnits="userSpaceOnUse">
      <stop offset="0" stop-color="#69b644"/>
      <stop offset=".2" stop-color="#5fae42"/>
      <stop offset=".54" stop-color="#45983e"/>
      <stop offset=".98" stop-color="#1b7537"/>
      <stop offset="1" stop-color="#197437"/>
    </linearGradient>
    <linearGradient id="_Безымянный_градиент_24" data-name="Безымянный градиент 24" x1="133.05" y1="57.87" x2="96.91" y2="120.95" gradientUnits="userSpaceOnUse">
      <stop offset=".24" stop-color="#69b644"/>
      <stop offset=".31" stop-color="#5cab41"/>
      <stop offset=".49" stop-color="#3e933d"/>
      <stop offset=".66" stop-color="#298139"/>
      <stop offset=".84" stop-color="#1d7737"/>
      <stop offset="1" stop-color="#197437"/>
    </linearGradient>
  </defs>
  <g id="Text">
    <polygon class="cls-10" points="37 232 37 238 49 238 49 244 37 244 37 250 51 250 51 256 30 256 30 226 51 226 51 232 37 232"/>
    <polygon class="cls-10" points="266 232 266 238 278 238 278 244 266 244 266 250 280 250 280 256 259 256 259 226 280 226 280 232 266 232"/>
    <path class="cls-10" d="M128,226h-7l-11.78,30h6.78l2-6h13l2.44,6h7.23l-12.67-30ZM120,244l4.53-11.5,4.53,11.5h-9.06Z"/>
    <polygon class="cls-10" points="150 232 150 239 162 239 162 245 150 245 150 256 144 256 144 226 164 226 164 232 150 232"/>
    <path class="cls-10" d="M100,226h-14v30h6.37v-8.74h7.3s9.55-.26,9.55-10.26-9.22-11-9.22-11ZM97.5,242h-5.2v-11h5.2c1.52,0,2.9.62,3.89,1.61s1.61,2.37,1.61,3.89c0,3.04-2.46,5.5-5.5,5.5Z"/>
    <polygon class="cls-10" points="82.9 256 74.73 256 68.33 244.89 61.33 256 54.16 256 64.56 241 54 226 54 226 61.73 226 68.28 236.5 74.93 226 82.31 226 72 241 82.9 256"/>
    <path class="cls-10" d="M182,226c-8.28,0-15,6.72-15,15s6.72,15,15,15,15-6.72,15-15-6.72-15-15-15ZM182,249.81c-4.56,0-8.26-3.95-8.26-8.81s3.7-8.81,8.26-8.81,8.26,3.95,8.26,8.81-3.7,8.81-8.26,8.81Z"/>
    <path class="cls-10" d="M251.1,247.14l3.93,4.02c-2.74,2.98-6.67,4.84-11.03,4.84-8.28,0-15-6.72-15-15s6.72-15,15-15c4.39,0,8.35,1.89,11.09,4.91l-3.98,3.98c-1.63-2.37-4.21-3.89-7.11-3.89-4.97,0-9,4.48-9,10s4.03,10,9,10c2.89,0,5.45-1.51,7.1-3.86Z"/>
    <path class="cls-10" d="M219.14,246.03c2.49-1.26,5.08-3.82,5.08-9.03,0-10-9.22-11-9.22-11h-14v30h6.37v-8.74h5.45l5.68,8.74h7.5l-6.86-9.97ZM207.3,242v-11h5.2c1.52,0,2.9.62,3.89,1.61s1.61,2.37,1.61,3.89c0,3.04-2.46,5.5-5.5,5.5h-5.2Z"/>
  </g>
  <g id="darks">
    <path class="cls-10" d="M42,178l-5,29,4,7h23s-4-12-10-9l-1-1,10-19,18-11,16-17,41,9-8.07-15.64,4.07-48.36-13,39-24,11v-31l-29,44-26,13Z"/>
    <path class="cls-10" d="M98,163l-5,5,2,19,17.59,27h25.41s-5-12-14-9c-5-14-7-19-7-19l20-16-39-7Z"/>
    <path class="cls-10" d="M185,94v30.56l-5,40.44,42-32s16-4,26-10c15,1,17,1,17,1l7-7,3-4-2-1s-3,7-35,7c-25-10-27-11-27-11l-7-19,1,23-10,13-10-31Z"/>
    <polygon class="cls-10" points="237 84 243 90 253 91 247.56 84 237 84"/>
    <path class="cls-10" d="M211,77c-2-11,3-26,13-9-7,4-13,9-13,9Z"/>
    <polygon class="cls-10" points="193 161 209 149 214 159 211 178 211 199 195.11 199 203 182 207 178 193 161"/>
  </g>
  <g id="dark-mid_gradient" data-name="dark-mid gradient">
    <polygon class="cls-5" points="164.56 214 168.67 214 154.22 152 134 102 135.19 151 164.56 214"/>
    <polygon class="cls-13" points="195 125 205 112 204 89 210 78 207.78 77 185 94 195 125"/>
    <polyline class="cls-11" points="211 108 223.55 113.19 243 90 237 84 211 108"/>
  </g>
  <g id="mid">
    <polygon class="cls-1" points="42 178 68 165 97 121 103.33 89 57.11 133.5 56 156 42 178"/>
    <polygon class="cls-1" points="97 152 97 121 142 63 134 102 121 141 97 152"/>
    <path class="cls-1" d="M185,124.56l-51-22.56,20.22,50,14.44,62h26.44l-6.11-8s-2-3.89-9-2.44c-4-23.56-6-35.56-6-35.56l11-43.44Z"/>
    <polygon class="cls-1" points="161 59 185 94 185 124.56 161 59"/>
    <path class="cls-1" d="M243,90l-19.45,23.19,14.45,5.81s13,1,25.01-2.19c-15.01-1.81-19.73-2.26-19.73-2.26l9.72-23.56-10-1Z"/>
    <path class="cls-1" d="M211,199l16-20s1-4.11,0-7.56-7-30.44-7-30.44l-11,8,5,10-3,19v21Z"/>
    <path class="cls-1" d="M239,64l4,.28,8.33,7.22s3-8.84-1.67-11.17c-5.67-3.33-10.67,3.67-10.67,3.67Z"/>
  </g>
  <g id="mid-light_gradient" data-name="mid-light gradient">
    <g>
      <polygon class="cls-1" points="161 59 185 124.56 134 102 161 59"/>
      <polygon class="cls-1" points="237 84 211 108 204 89 210 78 211 77 218.41 71.5 237 84"/>
      <path class="cls-1" d="M273,112c-4,4-9.99,4.81-9.99,4.81l-19.73-2.26,9.72-23.56,14.33,10-.33,5,2,3,4,3Z"/>
      <polygon class="cls-1" points="57.11 133.5 75.63 101 103.33 89 57.11 133.5"/>
      <path class="cls-1" d="M211,77l-1,1-2.22-1-1.78-10s1-12,10-12,8.81,8,8.81,8l-.81,5s-5-10-10-7c-5,5-3,16-3,16Z"/>
      <polygon class="cls-1" points="185 94 161 59 164.56 47.26 206 67 207.78 77 185 94"/>
    </g>
    <g>
      <polygon class="cls-12" points="161 59 185 124.56 134 102 161 59"/>
      <polygon class="cls-9" points="237 84 211 108 204 89 210 78 211 77 218.41 71.5 237 84"/>
      <path class="cls-2" d="M273,112c-4,4-9.99,4.81-9.99,4.81l-19.73-2.26,9.72-23.56,14.33,10-.33,5,2,3,4,3Z"/>
      <polygon class="cls-7" points="57.11 133.5 75.63 101 103.33 89 57.11 133.5"/>
      <path class="cls-4" d="M211,77l-1,1-2.22-1-1.78-10s1-12,10-12,8.81,8,8.81,8l-.81,5s-5-10-10-7c-5,5-3,16-3,16Z"/>
      <polygon class="cls-8" points="185 94 161 59 164.56 47.26 206 67 207.78 77 185 94"/>
    </g>
  </g>
  <g id="light">
    <polygon class="cls-6" points="97 121 142 63 103.33 89 97 121"/>
    <polygon class="cls-3" points="134 102 142 63 146 57 164.56 47.26 161 59 134 102"/>
    <path class="cls-3" d="M218.41,71.5l5.59-3.5.81-5,18.19,1.28,8.33,7.22,8.67,7.5s5.02,3.04,3.01,9.52c14.99,11.48,16.55,12.48,16.55,12.48h-12.22l-14.33-10-5.44-7h-10.56l-18.59-12.5Z"/>
    <polygon class="cls-10" points="279.56 101 267.33 101 267 106 269 109 273 112 275 113 281 102 279.56 101"/>
    <path class="cls-3" d="M164.56,47.26l41.44,19.74s.22-2.33,2-6c-31.78-9.33-43.44-13.74-43.44-13.74Z"/>
  </g>
</svg>