<?xml version="1.0" encoding="utf-8"?>
<!-- Generator: Adobe Illustrator 28.1.0, SVG Export Plug-In . SVG Version: 6.00 Build 0)  -->
<svg version="1.1" xmlns="http://www.w3.org/2000/svg" xmlns:xlink="http://www.w3.org/1999/xlink" x="0px" y="0px"
	 viewBox="0 0 300 300" style="enable-background:new 0 0 300 300;" xml:space="preserve">
<style type="text/css">
	.st0{display:none;}
	.st1{fill:#013F28;}
	.st2{fill:url(#SVGID_1_);}
	.st3{fill:url(#SVGID_00000137830315425231336300000001810157754415881652_);}
	.st4{fill:url(#SVGID_00000156560503040054073100000006557013654295776958_);}
	.st5{fill:#197437;}
	.st6{fill:url(#SVGID_00000135690306282336503830000005107882584773653636_);}
	.st7{fill:url(#SVGID_00000128461828977936023760000008279546636920094390_);}
	.st8{fill:url(#SVGID_00000060733495205719125850000016523868855227651515_);}
	.st9{fill:url(#SVGID_00000042701546833125014680000012598750136000175258_);}
	.st10{fill:url(#SVGID_00000003069191881628494890000011416127355454901413_);}
	.st11{fill:url(#SVGID_00000027594234280639229800000008578272810663613607_);}
	.st12{fill:#68B648;}
	.st13{fill:url(#SVGID_00000170984181844407503300000016877791907558417806_);}
</style>
<g id="Слой_1" class="st0">
	
		<image style="display:inline;overflow:visible;" width="1254" height="1254" xlink:href="DE73D471.jpg"  transform="matrix(0.2398 0 0 0.2398 -3 -1)">
	</image>
</g>
<g id="Text">
	<polygon class="st1" points="34,231 34,237 46,237 46,243 34,243 34,249 48,249 48,255 27,255 27,225 48,225 48,231 	"/>
	<polygon class="st1" points="263,231 263,237 275,237 275,243 263,243 263,249 277,249 277,255 256,255 256,225 277,225 277,231 	
		"/>
	<path class="st1" d="M125,225h-7l-11.8,30h6.8l2-6h13l2.4,6h7.2L125,225z M117,243l4.5-11.5l4.5,11.5H117z"/>
	<polygon class="st1" points="147,231 147,238 159,238 159,244 147,244 147,255 141,255 141,225 161,225 161,231 	"/>
	<path class="st1" d="M97,225H83v30h6.4v-8.7h7.3c0,0,9.5-0.3,9.5-10.3S97,225,97,225z M94.5,241h-5.2v-11h5.2
		c1.5,0,2.9,0.6,3.9,1.6s1.6,2.4,1.6,3.9C100,238.5,97.5,241,94.5,241z"/>
	<polygon class="st1" points="79.9,255 71.7,255 65.3,243.9 58.3,255 51.2,255 61.6,240 51,225 51,225 58.7,225 65.3,235.5 
		71.9,225 79.3,225 69,240 	"/>
	<path class="st1" d="M179,225c-8.3,0-15,6.7-15,15c0,8.3,6.7,15,15,15s15-6.7,15-15C194,231.7,187.3,225,179,225z M179,248.8
		c-4.6,0-8.3-3.9-8.3-8.8c0-4.9,3.7-8.8,8.3-8.8s8.3,3.9,8.3,8.8C187.3,244.9,183.6,248.8,179,248.8z"/>
	<path class="st1" d="M248.1,246.1l3.9,4c-2.7,3-6.7,4.8-11,4.8c-8.3,0-15-6.7-15-15c0-8.3,6.7-15,15-15c4.4,0,8.3,1.9,11.1,4.9
		l-4,4c-1.6-2.4-4.2-3.9-7.1-3.9c-5,0-9,4.5-9,10c0,5.5,4,10,9,10C243.9,250,246.5,248.5,248.1,246.1z"/>
	<path class="st1" d="M216.1,245c2.5-1.3,5.1-3.8,5.1-9c0-10-9.2-11-9.2-11h-14v30h6.4v-8.7h5.5l5.7,8.7h7.5L216.1,245z M204.3,241
		v-11h5.2c1.5,0,2.9,0.6,3.9,1.6s1.6,2.4,1.6,3.9c0,3-2.5,5.5-5.5,5.5H204.3z"/>
</g>
<g id="Слой_8">
	<path class="st1" d="M276.6,100c0,0-1.6-1-16.5-12.5c2-6.5-3-9.5-3-9.5l-8.7-7.5c0,0,3-8.8-1.7-11.2C241,56,236,63,236,63l-14.2-1
		c0,0,0.2-8-8.8-8c-4.5,0-6.9,2.9-8.3,5.9c-30.5-9-42.4-13.4-43.1-13.6l0,0L143,56l-4,6l-38.7,26l-27.7,12l-18.5,32.5L53,155l-14,22
		l-5,29l4,7h23c0,0-4-12-10-9c-1-1-1-1-1-1l10-19l18-11l16-17l41,9l-8.1-15.6L131,101l1.2,49l29.4,63h30.5l-6.1-8c0,0-2-3.9-9-2.4
		c-4-23.6-6-35.6-6-35.6l11-43.4l-5,40.4l42-32c0,0,16-4,26-10c15,1,17,1,17,1l7-7l3-4l6-11L276.6,100z M215.7,70.7
		c-4.1,2.9-7.2,4.9-7.7,5.2l7.3-5.5L221,67C219.1,68.3,217.3,69.6,215.7,70.7z M208.2,107.1l12,5
		C211.4,108.5,208.9,107.4,208.2,107.1z M225.8,114.3l5.9,2.4C229.5,115.8,227.5,115,225.8,114.3z M259.7,115.9
		c0.1,0,0.2-0.1,0.3-0.1c0,0,0.1,0,0.3-0.1C260.1,115.8,259.9,115.8,259.7,115.9z"/>
	<path class="st1" d="M135,213h-25.4L92,186l-2-19l5-5l39,7l-20,16c0,0,2,5,7,19C130,201,135,213,135,213z"/>
	<path class="st1" d="M221,67c-1.9,1.3-3.7,2.6-5.3,3.7c-4.1,2.9-7.2,4.9-7.7,5.2l7.3-5.5L221,67z"/>
	<path class="st1" d="M224,178l-16,20h-15.9l7.9-17l4-4l-14-17l16-12l11-8c0,0,6,27,7,30.4C225,173.9,224,178,224,178z"/>
	<path class="st1" d="M215.7,70.7c-4.1,2.9-7.2,4.9-7.7,5.2l7.3-5.5L215.7,70.7z"/>
	<path class="st1" d="M221,67c-1.9,1.3-3.7,2.6-5.3,3.7l-0.3-0.2L221,67z"/>
</g>
<g id="darks">
	<path class="st1" d="M39,177l-5,29l4,7h23c0,0-4-12-10-9c-1-1-1-1-1-1l10-19l18-11l16-17l41,9l-8.1-15.6L131,101l-13,39l-24,11v-31
		l-29,44L39,177z"/>
	<path class="st1" d="M95,162l-5,5l2,19l17.6,27H135c0,0-5-12-14-9c-5-14-7-19-7-19l20-16L95,162z"/>
	<path class="st1" d="M182,93v30.6l-5,40.4l42-32c0,0,16-4,26-10c15,1,17,1,17,1l7-7l3-4l-2-1c0,0-3,7-35,7c-25-10-27-11-27-11
		l-7-19l1,23l-10,13L182,93z"/>
	<polygon class="st1" points="234,83 240,89 250,90 244.6,83 	"/>
	<path class="st1" d="M208,76c-3-12,4-26,13-9C214,72,208,76,208,76z"/>
	<polygon class="st1" points="190,160 206,148 211,158 208,177 208,198 192.1,198 200,181 204,177 	"/>
</g>
<g id="dark-mid_gradient">
	<linearGradient id="SVGID_1_" gradientUnits="userSpaceOnUse" x1="129.0481" y1="106.1376" x2="159.2924" y2="212.1547">
		<stop  offset="0" style="stop-color:#328D3D"/>
		<stop  offset="5.413657e-02" style="stop-color:#277B38"/>
		<stop  offset="0.1404" style="stop-color:#196532"/>
		<stop  offset="0.2418" style="stop-color:#0E542E"/>
		<stop  offset="0.3664" style="stop-color:#07482A"/>
		<stop  offset="0.5394" style="stop-color:#024129"/>
		<stop  offset="1" style="stop-color:#013F28"/>
	</linearGradient>
	<polygon class="st2" points="161.6,213 165.7,213 151.2,151 131,101 132.2,150 	"/>
	
		<linearGradient id="SVGID_00000130642814444234411010000017082890336712426669_" gradientUnits="userSpaceOnUse" x1="195.382" y1="90.3957" x2="200.6319" y2="122.5139">
		<stop  offset="0" style="stop-color:#328D3D"/>
		<stop  offset="7.402951e-02" style="stop-color:#2B823A"/>
		<stop  offset="0.3131" style="stop-color:#196532"/>
		<stop  offset="0.5498" style="stop-color:#0C502D"/>
		<stop  offset="0.7809" style="stop-color:#044329"/>
		<stop  offset="1" style="stop-color:#013F28"/>
	</linearGradient>
	<polygon style="fill:url(#SVGID_00000130642814444234411010000017082890336712426669_);" points="192,124 202,111 201,88 207,77 
		204.8,76 182,93 	"/>
	
		<linearGradient id="SVGID_00000008858056201612193450000013553153842140074678_" gradientUnits="userSpaceOnUse" x1="230.8047" y1="81.8181" x2="214.5355" y2="120.5073">
		<stop  offset="0" style="stop-color:#328D3D"/>
		<stop  offset="2.487183e-02" style="stop-color:#308A3C"/>
		<stop  offset="0.293" style="stop-color:#1C6933"/>
		<stop  offset="0.5511" style="stop-color:#0D522D"/>
		<stop  offset="0.7923" style="stop-color:#044429"/>
		<stop  offset="1" style="stop-color:#013F28"/>
	</linearGradient>
	<polyline style="fill:url(#SVGID_00000008858056201612193450000013553153842140074678_);" points="208,107 220.5,112.2 240,89 
		234,83 208,107 	"/>
</g>
<g id="mid">
	<polygon class="st5" points="39,177 65,164 94,120 100.3,88 54.1,132.5 53,155 	"/>
	<polygon class="st5" points="94,151 94,120 139,62 131,101 118,140 	"/>
	<path class="st5" d="M182,123.6L131,101l20.2,50l14.4,62h26.4l-6.1-8c0,0-2-3.9-9-2.4c-4-23.6-6-35.6-6-35.6L182,123.6z"/>
	<polygon class="st5" points="158,58 182,93 182,123.6 	"/>
	<path class="st5" d="M240,89l-19.5,23.2L235,118c0,0,13,1,25-2.2c-15-1.8-19.7-2.3-19.7-2.3L250,90L240,89z"/>
	<path class="st5" d="M208,198l16-20c0,0,1-4.1,0-7.6s-7-30.4-7-30.4l-11,8l5,10l-3,19V198z"/>
	<path class="st5" d="M236,63l4,0.3l8.3,7.2c0,0,3-8.8-1.7-11.2C241,56,236,63,236,63z"/>
</g>
<g id="mid-light_gradient">
	<g>
		<polygon class="st5" points="158,58 182,123.6 131,101 		"/>
		<polygon class="st5" points="234,83 208,107 201,88 207,77 208,76 215.4,70.5 		"/>
		<path class="st5" d="M270,111c-1,3-10,4.8-10,4.8l-19.7-2.3L250,90l14.3,10l-0.3,5l2,3L270,111z"/>
		<polygon class="st5" points="54.1,132.5 72.6,100 100.3,88 		"/>
		<polygon class="st5" points="182,93 158,58 161.6,46.3 203,66 204.8,76 		"/>
	</g>
	<g>
		
			<linearGradient id="SVGID_00000140717832121010298560000000843022682622545800_" gradientUnits="userSpaceOnUse" x1="176.9353" y1="86.8767" x2="132.4849" y2="111.88">
			<stop  offset="0" style="stop-color:#69B644"/>
			<stop  offset="8.620948e-02" style="stop-color:#5CAC42"/>
			<stop  offset="0.3221" style="stop-color:#3F933D"/>
			<stop  offset="0.5557" style="stop-color:#2A823A"/>
			<stop  offset="0.7838" style="stop-color:#1D7838"/>
			<stop  offset="1" style="stop-color:#197437"/>
		</linearGradient>
		<polygon style="fill:url(#SVGID_00000140717832121010298560000000843022682622545800_);" points="158,58 182,123.6 131,101 		"/>
		
			<linearGradient id="SVGID_00000147222507872579577580000006534000482225397427_" gradientUnits="userSpaceOnUse" x1="232.6767" y1="76.9542" x2="198.3756" y2="96.2486">
			<stop  offset="0" style="stop-color:#69B644"/>
			<stop  offset="8.620948e-02" style="stop-color:#5CAC42"/>
			<stop  offset="0.3221" style="stop-color:#3F933D"/>
			<stop  offset="0.5557" style="stop-color:#2A823A"/>
			<stop  offset="0.7838" style="stop-color:#1D7838"/>
			<stop  offset="1" style="stop-color:#197437"/>
		</linearGradient>
		<polygon style="fill:url(#SVGID_00000147222507872579577580000006534000482225397427_);" points="234,83 208,107 201,88 207,77 
			208,76 215.4,70.5 		"/>
		
			<linearGradient id="SVGID_00000134955785402151553850000002663072591656827783_" gradientUnits="userSpaceOnUse" x1="264.9651" y1="98.161" x2="237.4535" y2="113.6363">
			<stop  offset="0" style="stop-color:#69B644"/>
			<stop  offset="8.620948e-02" style="stop-color:#5CAC42"/>
			<stop  offset="0.3221" style="stop-color:#3F933D"/>
			<stop  offset="0.5557" style="stop-color:#2A823A"/>
			<stop  offset="0.7838" style="stop-color:#1D7838"/>
			<stop  offset="1" style="stop-color:#197437"/>
		</linearGradient>
		<path style="fill:url(#SVGID_00000134955785402151553850000002663072591656827783_);" d="M270,111c-1,3-10,4.8-10,4.8l-19.7-2.3
			L250,90l14.3,10l-0.3,5l2,3L270,111z"/>
		
			<linearGradient id="SVGID_00000127752995190990964950000011581679605916813199_" gradientUnits="userSpaceOnUse" x1="106.367" y1="92.0644" x2="44.4917" y2="126.8692">
			<stop  offset="0" style="stop-color:#69B644"/>
			<stop  offset="8.620948e-02" style="stop-color:#5CAC42"/>
			<stop  offset="0.3221" style="stop-color:#3F933D"/>
			<stop  offset="0.5557" style="stop-color:#2A823A"/>
			<stop  offset="0.7838" style="stop-color:#1D7838"/>
			<stop  offset="1" style="stop-color:#197437"/>
		</linearGradient>
		<polygon style="fill:url(#SVGID_00000127752995190990964950000011581679605916813199_);" points="54.1,132.5 72.6,100 100.3,88 		
			"/>
		
			<linearGradient id="SVGID_00000181052863398757004370000001988321479690034604_" gradientUnits="userSpaceOnUse" x1="174.3298" y1="49.5273" x2="189.3496" y2="79.8891">
			<stop  offset="0" style="stop-color:#69B644"/>
			<stop  offset="0.203" style="stop-color:#5FAE42"/>
			<stop  offset="0.5437" style="stop-color:#45993E"/>
			<stop  offset="0.9778" style="stop-color:#1B7637"/>
			<stop  offset="1" style="stop-color:#197437"/>
		</linearGradient>
		<polygon style="fill:url(#SVGID_00000181052863398757004370000001988321479690034604_);" points="182,93 158,58 161.6,46.3 
			203,66 204.8,76 		"/>
	</g>
</g>
<g id="light">
	
		<linearGradient id="SVGID_00000101072658149548367100000018149959566759994000_" gradientUnits="userSpaceOnUse" x1="130.054" y1="56.8735" x2="93.9094" y2="119.9481">
		<stop  offset="0.2426" style="stop-color:#69B644"/>
		<stop  offset="0.3079" style="stop-color:#5CAC42"/>
		<stop  offset="0.4866" style="stop-color:#3F933D"/>
		<stop  offset="0.6635" style="stop-color:#2A823A"/>
		<stop  offset="0.8362" style="stop-color:#1D7838"/>
		<stop  offset="1" style="stop-color:#197437"/>
	</linearGradient>
	<polygon style="fill:url(#SVGID_00000101072658149548367100000018149959566759994000_);" points="94,120 139,62 100.3,88 	"/>
	<polygon class="st12" points="131,101 139,62 143,56 161.6,46.3 158,58 	"/>
	<path class="st12" d="M215.4,70.5L221,67l0.8-5l18.2,1.3l8.3,7.2L257,78c0,0,5,3,3,9.5C275,99,276.6,100,276.6,100h-12.2L250,90
		l-5.4-7H234L215.4,70.5z"/>
	<polygon class="st1" points="276.6,100 264.3,100 264,105 266,108 270,111 272,112 278,101 	"/>
	<path class="st12" d="M161.6,46.3L203,66c0,0,0.2-2.3,2-6C173.2,50.7,161.6,46.3,161.6,46.3z"/>
	
		<linearGradient id="SVGID_00000111872806467307398940000008139304648411519416_" gradientUnits="userSpaceOnUse" x1="217.6817" y1="54.9653" x2="205.3885" y2="76.3511">
		<stop  offset="0" style="stop-color:#69B644"/>
		<stop  offset="8.620948e-02" style="stop-color:#5CAC42"/>
		<stop  offset="0.3221" style="stop-color:#3F933D"/>
		<stop  offset="0.5557" style="stop-color:#2A823A"/>
		<stop  offset="0.7838" style="stop-color:#1D7838"/>
		<stop  offset="1" style="stop-color:#197437"/>
	</linearGradient>
	<path style="fill:url(#SVGID_00000111872806467307398940000008139304648411519416_);" d="M208,76l-1,1l-2.2-1L203,66
		c0,0,1-12,10-12s8.8,8,8.8,8l-0.8,5c0,0-5-10-10-7C206,65,208,76,208,76z"/>
</g>
</svg>
