<?xml version="1.0" encoding="utf-8"?>
<!-- Generator: Adobe Illustrator 28.1.0, SVG Export Plug-In . SVG Version: 6.00 Build 0)  -->
<svg version="1.1" xmlns="http://www.w3.org/2000/svg" xmlns:xlink="http://www.w3.org/1999/xlink" x="0px" y="0px"
	 viewBox="0 0 300 300" style="enable-background:new 0 0 300 300;" xml:space="preserve">
<style type="text/css">
	.st0{display:none;}
	.st1{display:inline;stroke:#000000;stroke-miterlimit:10;}
	.st2{fill:#FFFFFF;}
	.st3{display:inline;fill:#013F28;}
	.st4{display:inline;fill:url(#SVGID_1_);}
	.st5{display:inline;fill:url(#SVGID_00000052062882368211225970000000761487441497730689_);}
	.st6{display:inline;fill:url(#SVGID_00000114052221374202239040000008154879329684174469_);}
	.st7{display:inline;fill:#197437;}
	.st8{display:inline;}
	.st9{fill:#197437;}
	.st10{fill:url(#SVGID_00000008148423383470316760000000029589986926945712_);}
	.st11{fill:url(#SVGID_00000145754846703896383610000012213384129392130736_);}
	.st12{fill:url(#SVGID_00000134233645626069209550000008789458261541102520_);}
	.st13{fill:url(#SVGID_00000110438527661420239920000002258853472172141745_);}
	.st14{fill:url(#SVGID_00000029764647543197541110000010141087592874301108_);}
	.st15{display:inline;fill:url(#SVGID_00000145030109710422049250000014324241734864740028_);}
	.st16{display:inline;fill:#68B648;}
	.st17{display:inline;fill:url(#SVGID_00000122718039076459788080000005075145512787333560_);}
</style>
<g id="Слой_2" class="st0">
	<rect class="st1" width="300" height="300"/>
</g>
<g id="Слой_1">
	<g id="Слой_1_00000029043877257194945170000004268009622363471284_" class="st0">
		
			<image style="display:inline;overflow:visible;enable-background:new    ;" width="1254" height="1254" xlink:href="DE73D472.jpg"  transform="matrix(0.2398 0 0 0.2398 -3 -1)">
		</image>
	</g>
	<g id="Text">
		<polygon class="st2" points="34,231 34,237 46,237 46,243 34,243 34,249 48,249 48,255 27,255 27,225 48,225 48,231 		"/>
		<polygon class="st2" points="263,231 263,237 275,237 275,243 263,243 263,249 277,249 277,255 256,255 256,225 277,225 277,231 
					"/>
		<path class="st2" d="M125,225h-7l-11.8,30h6.8l2-6h13l2.4,6h7.2L125,225z M117,243l4.5-11.5L126,243H117z"/>
		<polygon class="st2" points="147,231 147,238 159,238 159,244 147,244 147,255 141,255 141,225 161,225 161,231 		"/>
		<path class="st2" d="M97,225H83v30h6.4v-8.7h7.3c0,0,9.5-0.3,9.5-10.3S97,225,97,225z M94.5,241h-5.2v-11h5.2
			c1.5,0,2.9,0.6,3.9,1.6s1.6,2.4,1.6,3.9C100,238.5,97.5,241,94.5,241z"/>
		<polygon class="st2" points="79.9,255 71.7,255 65.3,243.9 58.3,255 51.2,255 61.6,240 51,225 51,225 58.7,225 65.3,235.5 
			71.9,225 79.3,225 69,240 		"/>
		<path class="st2" d="M179,225c-8.3,0-15,6.7-15,15s6.7,15,15,15s15-6.7,15-15S187.3,225,179,225z M179,248.8
			c-4.6,0-8.3-3.9-8.3-8.8c0-4.9,3.7-8.8,8.3-8.8s8.3,3.9,8.3,8.8C187.3,244.9,183.6,248.8,179,248.8z"/>
		<path class="st2" d="M248.1,246.1l3.9,4c-2.7,3-6.7,4.8-11,4.8c-8.3,0-15-6.7-15-15s6.7-15,15-15c4.4,0,8.3,1.9,11.1,4.9l-4,4
			c-1.6-2.4-4.2-3.9-7.1-3.9c-5,0-9,4.5-9,10s4,10,9,10C243.9,250,246.5,248.5,248.1,246.1z"/>
		<path class="st2" d="M216.1,245c2.5-1.3,5.1-3.8,5.1-9c0-10-9.2-11-9.2-11h-14v30h6.4v-8.7h5.5l5.7,8.7h7.5L216.1,245z M204.3,241
			v-11h5.2c1.5,0,2.9,0.6,3.9,1.6s1.6,2.4,1.6,3.9c0,3-2.5,5.5-5.5,5.5H204.3z"/>
	</g>
	<g id="backing">
		<path class="st2" d="M95,162l-5,5l2,19l17.6,27H135c0,0-5-12-14-9c-5-14-7-19-7-19l20-16L95,162z"/>
		<path class="st2" d="M224,178l-16,20h-15.9l7.9-17l4-4l-14-17l16-12l11-8c0,0,6,27,7,30.4C225,173.9,224,178,224,178z"/>
		<path class="st2" d="M266.5,103.8l3.8-2.8h7.7l-1.4-1c0,0-1.6-1-16.6-12.5c2-6.5-3-9.5-3-9.5l-8.7-7.5c0,0,1.4-4,0.8-7.3
			c-0.2-1.7-1-3.2-2.5-3.9c-0.3-0.2-0.5-0.3-0.8-0.4c-0.1-0.1-0.3-0.1-0.4-0.2c-0.3-0.1-0.5-0.2-0.8-0.2c-0.1,0-0.3,0-0.4-0.1
			c-0.4-0.1-0.8-0.1-1.1,0c-4.1,0.2-7.2,4.6-7.2,4.6l-7.1-0.5l-7-0.5h-0.1c0,0,0.2-7.5-8-8h-1.5c-4,0.3-6.2,3-7.6,5.9
			c-5.3-1.6-10-3-14.2-4.3c-3.6-1.1-6.8-2.1-9.7-3c-3.2-1-6-1.9-8.4-2.7c-1.2-0.4-2.3-0.8-3.2-1.1c-0.3-0.1-0.5-0.2-0.8-0.2
			c-1-0.3-1.8-0.6-2.6-0.9h-0.1c-0.2-0.1-0.5-0.2-0.7-0.2c-0.5-0.2-0.9-0.3-1.2-0.4c-0.3-0.1-0.5-0.2-0.8-0.3
			c-0.3-0.1-0.5-0.2-0.7-0.2c-0.3-0.1-0.5-0.2-0.5-0.2h-0.1L143,56l-4,6l-38.7,26l-27.7,12l-18.5,32.5L53,155l-14,22l-5,29l4,7h23
			c0,0-4-12-10-9c-1-1-1-1-1-1l10-19l18-11l16-17l41,9l-8.1-15.6L131,101l1.2,49l29.4,63h30.5l-6.1-8c0,0-1.3-2.5-5.3-2.7h-1.4
			c-0.7,0-1.5,0.1-2.3,0.3c-2-11.8-3.5-20.7-4.5-26.6s-1.5-9-1.5-9l11-43.4l-5,40.4l42-32c0,0,16-4,26-10c15,1,17,1,17,1l7-7l3-4
			l-5.5-3.2V103.8z M208,76c-3-12,4-26,13-9C214,72,208,76,208,76z M240,89l-6-6h10.6l5.4,7L240,89z"/>
	</g>
	<g id="darks" class="st0">
		<path class="st3" d="M39,177l-5,29l4,7h23c0,0-4-12-10-9c-1-1-1-1-1-1l10-19l18-11l16-17l41,9l-8.1-15.6L131,101l-13,39l-24,11
			v-31l-29,44L39,177z"/>
		<path class="st3" d="M95,162l-5,5l2,19l17.6,27H135c0,0-5-12-14-9c-5-14-7-19-7-19l20-16L95,162z"/>
		<path class="st3" d="M182,93v30.6l-5,40.4l42-32c0,0,16-4,26-10c15,1,17,1,17,1l7-7l3-4l-2-1c0,0-3,7-35,7c-25-10-27-11-27-11
			l-7-19l1,23l-10,13L182,93z"/>
		<polygon class="st3" points="234,83 240,89 250,90 244.6,83 		"/>
		<path class="st3" d="M221,67c-7,5-13,9-13,9C205,64,212,50,221,67z"/>
		<polygon class="st3" points="190,160 206,148 211,158 208,177 208,198 192.1,198 200,181 204,177 		"/>
	</g>
	<g id="dark-mid_gradient" class="st0">
		<linearGradient id="SVGID_1_" gradientUnits="userSpaceOnUse" x1="129.0447" y1="106.1386" x2="159.289" y2="212.1557">
			<stop  offset="0" style="stop-color:#328D3D"/>
			<stop  offset="5.413657e-02" style="stop-color:#277B38"/>
			<stop  offset="0.1404" style="stop-color:#196532"/>
			<stop  offset="0.2418" style="stop-color:#0E542E"/>
			<stop  offset="0.3664" style="stop-color:#07482A"/>
			<stop  offset="0.5394" style="stop-color:#024129"/>
			<stop  offset="1" style="stop-color:#013F28"/>
		</linearGradient>
		<polygon class="st4" points="161.6,213 165.7,213 151.2,151 131,101 132.2,150 		"/>
		
			<linearGradient id="SVGID_00000139977754235247378740000004160334397637486525_" gradientUnits="userSpaceOnUse" x1="195.382" y1="90.3957" x2="200.6319" y2="122.5139">
			<stop  offset="0" style="stop-color:#328D3D"/>
			<stop  offset="7.402951e-02" style="stop-color:#2B823A"/>
			<stop  offset="0.3131" style="stop-color:#196532"/>
			<stop  offset="0.5498" style="stop-color:#0C502D"/>
			<stop  offset="0.7809" style="stop-color:#044329"/>
			<stop  offset="1" style="stop-color:#013F28"/>
		</linearGradient>
		<polygon style="display:inline;fill:url(#SVGID_00000139977754235247378740000004160334397637486525_);" points="192,124 202,111 
			201,88 207,77 204.8,76 182,93 		"/>
		
			<linearGradient id="SVGID_00000099642116344565773830000006545855486745579687_" gradientUnits="userSpaceOnUse" x1="228.5092" y1="191.2769" x2="217.5539" y2="217.3291" gradientTransform="matrix(1 0 0 -1 0 300)">
			<stop  offset="0" style="stop-color:#328D3D"/>
			<stop  offset="2.487183e-02" style="stop-color:#308A3C"/>
			<stop  offset="0.293" style="stop-color:#1C6933"/>
			<stop  offset="0.5511" style="stop-color:#0D522D"/>
			<stop  offset="0.7923" style="stop-color:#044429"/>
			<stop  offset="1" style="stop-color:#013F28"/>
		</linearGradient>
		<polygon style="display:inline;fill:url(#SVGID_00000099642116344565773830000006545855486745579687_);" points="240,89 
			220.5,112.2 208,107 234,83 		"/>
	</g>
	<g id="mid" class="st0">
		<polygon class="st7" points="39,177 65,164 94,120 100.3,88 54.1,132.5 53,155 		"/>
		<polygon class="st7" points="94,151 94,120 139,62 131,101 118,140 		"/>
		<path class="st7" d="M182,123.6L131,101l20.2,50l14.4,62H192l-6.1-8c0,0-2-3.9-9-2.4c-4-23.6-6-35.6-6-35.6L182,123.6z"/>
		<polygon class="st7" points="158,58 182,93 182,123.6 		"/>
		<path class="st7" d="M260,115.8c-12,3.2-25,2.2-25,2.2l-14.5-5.8L240,89l10,1l-9.7,23.5C240.3,113.5,245,114,260,115.8z"/>
		<path class="st7" d="M208,198l16-20c0,0,1-4.1,0-7.6s-7-30.4-7-30.4l-11,8l5,10l-3,19V198z"/>
		<path class="st7" d="M236,63l4,0.3l8.3,7.2c0,0,3-8.8-1.7-11.2C241,56,236,63,236,63z"/>
	</g>
	<g id="mid-light_gradient" class="st0">
		<g class="st8">
			<polygon class="st9" points="158,58 182,123.6 131,101 			"/>
			<polygon class="st9" points="234,83 208,107 201,88 207,77 208,76 215.4,70.5 			"/>
			<path class="st9" d="M270,111c-1,3-10,4.8-10,4.8l-19.7-2.3L250,90l14.3,10l-0.3,5l2,3L270,111z"/>
			<polygon class="st9" points="54.1,132.5 72.6,100 100.3,88 			"/>
			<polygon class="st9" points="182,93 158,58 161.6,46.3 203,66 204.8,76 			"/>
		</g>
		<g class="st8">
			
				<linearGradient id="SVGID_00000174577586043667132860000012746720872525770672_" gradientUnits="userSpaceOnUse" x1="176.9448" y1="86.8936" x2="132.4944" y2="111.8969">
				<stop  offset="0" style="stop-color:#69B644"/>
				<stop  offset="8.620949e-02" style="stop-color:#5CAC42"/>
				<stop  offset="0.3221" style="stop-color:#3F933D"/>
				<stop  offset="0.5557" style="stop-color:#2A823A"/>
				<stop  offset="0.7838" style="stop-color:#1D7838"/>
				<stop  offset="1" style="stop-color:#197437"/>
			</linearGradient>
			<polygon style="fill:url(#SVGID_00000174577586043667132860000012746720872525770672_);" points="158,58 182,123.6 131,101 			
				"/>
			
				<linearGradient id="SVGID_00000002353023855332164710000016939750199833912500_" gradientUnits="userSpaceOnUse" x1="232.6752" y1="76.9515" x2="198.3741" y2="96.2458">
				<stop  offset="0" style="stop-color:#69B644"/>
				<stop  offset="8.620949e-02" style="stop-color:#5CAC42"/>
				<stop  offset="0.3221" style="stop-color:#3F933D"/>
				<stop  offset="0.5557" style="stop-color:#2A823A"/>
				<stop  offset="0.7838" style="stop-color:#1D7838"/>
				<stop  offset="1" style="stop-color:#197437"/>
			</linearGradient>
			<polygon style="fill:url(#SVGID_00000002353023855332164710000016939750199833912500_);" points="234,83 208,107 201,88 207,77 
				208,76 215.4,70.5 			"/>
			
				<linearGradient id="SVGID_00000147914784083095744020000017791765528003625344_" gradientUnits="userSpaceOnUse" x1="264.9643" y1="98.1597" x2="237.4528" y2="113.635">
				<stop  offset="0" style="stop-color:#69B644"/>
				<stop  offset="8.620949e-02" style="stop-color:#5CAC42"/>
				<stop  offset="0.3221" style="stop-color:#3F933D"/>
				<stop  offset="0.5557" style="stop-color:#2A823A"/>
				<stop  offset="0.7838" style="stop-color:#1D7838"/>
				<stop  offset="1" style="stop-color:#197437"/>
			</linearGradient>
			<path style="fill:url(#SVGID_00000147914784083095744020000017791765528003625344_);" d="M270,111c-1,3-10,4.8-10,4.8l-19.7-2.3
				L250,90l14.3,10l-0.3,5l2,3L270,111z"/>
			
				<linearGradient id="SVGID_00000038398254466046472960000014948863713665804701_" gradientUnits="userSpaceOnUse" x1="106.3621" y1="92.0557" x2="44.4868" y2="126.8605">
				<stop  offset="0" style="stop-color:#69B644"/>
				<stop  offset="8.620949e-02" style="stop-color:#5CAC42"/>
				<stop  offset="0.3221" style="stop-color:#3F933D"/>
				<stop  offset="0.5557" style="stop-color:#2A823A"/>
				<stop  offset="0.7838" style="stop-color:#1D7838"/>
				<stop  offset="1" style="stop-color:#197437"/>
			</linearGradient>
			<polygon style="fill:url(#SVGID_00000038398254466046472960000014948863713665804701_);" points="54.1,132.5 72.6,100 100.3,88 
							"/>
			
				<linearGradient id="SVGID_00000011007465467007237730000010946833318779412119_" gradientUnits="userSpaceOnUse" x1="174.3298" y1="49.5273" x2="189.3496" y2="79.8891">
				<stop  offset="0" style="stop-color:#69B644"/>
				<stop  offset="0.203" style="stop-color:#5FAE42"/>
				<stop  offset="0.5437" style="stop-color:#45993E"/>
				<stop  offset="0.9778" style="stop-color:#1B7637"/>
				<stop  offset="1" style="stop-color:#197437"/>
			</linearGradient>
			<polygon style="fill:url(#SVGID_00000011007465467007237730000010946833318779412119_);" points="182,93 158,58 161.6,46.3 
				203,66 204.8,76 			"/>
		</g>
	</g>
	<g id="light" class="st0">
		
			<linearGradient id="SVGID_00000052084422578395270810000012204066973035886517_" gradientUnits="userSpaceOnUse" x1="130.0414" y1="56.8663" x2="93.8968" y2="119.9409">
			<stop  offset="0.2426" style="stop-color:#69B644"/>
			<stop  offset="0.3079" style="stop-color:#5CAC42"/>
			<stop  offset="0.4866" style="stop-color:#3F933D"/>
			<stop  offset="0.6635" style="stop-color:#2A823A"/>
			<stop  offset="0.8362" style="stop-color:#1D7838"/>
			<stop  offset="1" style="stop-color:#197437"/>
		</linearGradient>
		<polygon style="display:inline;fill:url(#SVGID_00000052084422578395270810000012204066973035886517_);" points="94,120 139,62 
			100.3,88 		"/>
		<polygon class="st16" points="131,101 139,62 143,56 161.6,46.3 158,58 		"/>
		<path class="st16" d="M276.6,100h-12.2L250,90l-5.4-7H234l-18.6-12.5L221,67l0.8-5l0,0l7,0.5l11.2,0.8l8.3,7.2L257,78
			c0,0,5,3,3,9.5C275,99,276.6,100,276.6,100z"/>
		<polygon class="st3" points="276.6,100 264.3,100 264,105 266,108 270,111 272,112 278,101 		"/>
		<path class="st16" d="M161.6,46.3L203,66c0,0,0.2-2.3,2-6C173.2,50.7,161.6,46.3,161.6,46.3z"/>
		
			<linearGradient id="SVGID_00000010996589486757339930000009669122209187229839_" gradientUnits="userSpaceOnUse" x1="217.6811" y1="54.9662" x2="205.3941" y2="76.3415">
			<stop  offset="0" style="stop-color:#69B644"/>
			<stop  offset="8.620949e-02" style="stop-color:#5CAC42"/>
			<stop  offset="0.3221" style="stop-color:#3F933D"/>
			<stop  offset="0.5557" style="stop-color:#2A823A"/>
			<stop  offset="0.7838" style="stop-color:#1D7838"/>
			<stop  offset="1" style="stop-color:#197437"/>
		</linearGradient>
		<path style="display:inline;fill:url(#SVGID_00000010996589486757339930000009669122209187229839_);" d="M208,76l-1,1l-2.2-1
			L203,66c0,0,1-12,10-12s8.8,8,8.8,8l-0.8,5c0,0-5-10-10-7C206,65,208,76,208,76z"/>
	</g>
</g>
</svg>
