<?xml version="1.0" encoding="utf-8"?>
<!-- Generator: Adobe Illustrator 28.0.0, SVG Export Plug-In . SVG Version: 6.00 Build 0)  -->
<svg version="1.1" id="Слой_1" xmlns="http://www.w3.org/2000/svg" xmlns:xlink="http://www.w3.org/1999/xlink" x="0px" y="0px"
	 viewBox="0 0 1000 216.6179962" style="enable-background:new 0 0 1000 216.6179962;" xml:space="preserve">
<style type="text/css">
	.st0{fill:#181818;}
	.st1{fill:#FCC836;}
</style>
<path class="st0" d="M7.9942288,167.6228027c4.9571204-13.0735321,9.419693-24.8495941,14.6037235-38.5223999
	c6.5164013,9.4720612,12.5789814,17.3033752,17.4662838,25.8038025c2.6589241,4.6254883-4.9163933,12.0262604-10.6938782,12.608078
	c-1.2392807,0.1221771-2.501833,0.1047211-3.7585678,0.1047211c-5.2480316,0.0116272-10.4902439,0-17.6175575,0
	L7.9942288,167.6228027z"/>
<path class="st0" d="M160.6176758,167.6984558V0.133819h26.9499817v167.5646362H160.6176758z"/>
<path class="st0" d="M44.5326271,73.7866135L70.3829575,0.133819h29.3238068l44.6140823,167.5646362h-18.903389
	c-5.4225769-2.2225647-8.9135056-6.0742188-10.4320679-11.2698822
	c-8.2502289-28.259079-33.245285-111.9774017-33.245285-111.9774017L61.3356209,99.4275055L44.5267944,73.7866287
	L44.5326271,73.7866135z"/>
<path class="st1" d="M0,75.7066269h34.723114l22.6386757,33.4372864
	c25.4023323-28.8699875,58.2810707-37.0329437,96.3496704-30.8016357
	c-36.8758621,11.3047867-71.7269745,32.9369202-103.4595261,70.0280533L0,75.7066269z"/>
<g>
	<path class="st0" d="M215.8150787,168.0999146V51.6773949h26.9499817v116.4225159H215.8150787z"/>
	<ellipse class="st0" cx="229.2900696" cy="16.896101" rx="17.0299129" ry="16.6342793"/>
</g>
<polygon class="st0" points="271.6408691,0 366.5301514,0 366.5301514,23.3950462 297.3864746,23.3950462 297.3864746,65.7400208 
	366.5301514,65.7400208 366.5301514,88.780159 297.3864746,88.7743454 297.3864746,143.8030243 374.9258728,143.8553925 
	357.4769897,167.7915497 271.6408691,167.8322601 "/>
<polygon class="st0" points="375.9847412,51.3632126 406.4082336,51.3632126 431.1356506,87.2965088 456.0375977,51.3632126 
	487.5257874,51.3632126 447.1008301,110.0631943 487.5257874,168.4082794 455.3277893,167.7857208 431.4032593,133.7200623 
	407.1180115,167.7857208 375.2807617,167.7857208 415.9500732,109.8886414 "/>
<path class="st0" d="M562.5167847,48.3842888c-13.9986572,0-25.3150635,6.2603989-34.6998291,16.51791V51.3632126H500.098938
	v165.2547913h27.7180176v-62.080368c9.4429321,10.6880646,20.0146484,13.2480774,34.5485229,13.2480774
	c28.8932495,0,54.44104-25.0590668,54.44104-58.7698135s-25.390686-60.6374474-54.2839355-60.6374474L562.5167847,48.3842888z
	 M558.5894775,144.3092194c-17.937561,0-32.3783569-15.5288239-32.3783569-36.0962219s14.5396729-36.7478561,32.4714355-36.7478561
	s33.6990967,16.4248199,33.6990967,36.992218s-15.8604736,35.8518448-33.7922363,35.8518448L558.5894775,144.3092194z"/>
<path class="st0" d="M652.3325195,104.6406174c0-17.105545,15.3891602-35.7994766,38.7784424-33.4081955
	c2.8684082-5.1025772,10.053894-13.8066216,17.3441162-17.7455559c-21.8299561-7.4705887-38.3070679-4.8640289-56.1340942,9.8793297
	l0.0115967-12.0146179h-26.1936035l0.0058594,116.3410492h26.1877441v-63.0520096H652.3325195z"/>
<path class="st0" d="M772.3449097,137.1120758c-6.0218506,5.3353119-13.9462891,8.5818787-22.6270752,8.5818787
	c-15.1855469,0-28.8466797-11.112793-33.2860107-24.8146896h88.9372559
	c1.3614502-44.7362671-23.8197021-68.7945862-55.6512451-68.7945862c-31.8314819,0-57.6351929,26.0597916-57.6351929,58.2112503
	s25.803772,58.2112427,57.6352539,58.2112427c22.2546997,0,41.5595703-12.7418823,51.1654053-31.3950958H772.3449097z
	 M748.914917,76.1429901c15.1855469,0,28.0437622,9.9084244,32.4888916,23.6161346h-64.9778442
	c4.4451294-13.7018967,17.3033447-23.6161346,32.4888916-23.6161346H748.914917z"/>
<path class="st0" d="M877.2124023,82.6477585h23.4822998c0-37.8125839-87.5175781-45.4169922-87.5234375,5.2480392
	c0,38.2605896,65.7749634,24.727417,65.4607544,43.9391632c-0.2792358,17.1928101-37.3762207,15.1971741-42.7813721,4.177475
	h-24.0117798c9.0706177,45.9813538,91.2528687,39.0285797,91.2528687-2.4029236
	c0-45.9057312-65.6410522-23.5230484-66.5254517-47.051918c-0.7156372-18.9208374,34.4438477-17.5128326,40.6460571-3.915657
	L877.2124023,82.6477585z"/>
<path class="st0" d="M974.1206665,82.6477585h23.4822998c0-37.8125839-87.5176392-45.4169922-87.5234375,5.2480392
	c0,38.2605896,65.7749634,24.727417,65.4607544,43.9391632c-0.2792969,17.1928101-37.3762207,15.1971741-42.7813721,4.177475
	h-24.0117798C917.817688,181.9937897,1000,175.0410156,1000,133.6095123c0-45.9057312-65.6411133-23.5230484-66.5254517-47.051918
	c-0.7156372-18.9208374,34.4437866-17.5128326,40.6460571-3.915657L974.1206665,82.6477585z"/>
</svg>
