<?xml version="1.0" encoding="utf-8"?>
<!-- Generator: Adobe Illustrator 28.0.0, SVG Export Plug-In . SVG Version: 6.00 Build 0)  -->
<svg version="1.1" id="Слой_1" xmlns="http://www.w3.org/2000/svg" xmlns:xlink="http://www.w3.org/1999/xlink" x="0px" y="0px"
	 viewBox="0 0 1000 311.4477234" enable-background="new 0 0 1000 311.4477234" xml:space="preserve">
<path fill="#0073E6" d="M58.453968,220.599884H46.540123l-0.3264313,3.2097168
	c-0.5909119,5.6794281-1.7202797,11.289856-3.3728561,16.7555542c-1.0679855,3.6382294-2.6235123,7.1151886-4.6240845,10.3361816
	H58.453968V220.599884z M24.8340569,286.8604126c0.0107841,0.8787537-0.151619,1.7510071-0.4779663,2.5669861
	c-0.3263493,0.8160095-0.810236,1.5596619-1.4240131,2.1885986s-1.3454437,1.1308289-2.1532459,1.4769592
	c-0.8077221,0.3461304-1.675766,0.5297852-2.5545139,0.5404053H6.7728729
	c-0.878747,0.0107727-1.750927-0.1516113-2.5669179-0.4779663s-1.5596592-0.8102417-2.1885984-1.4240112
	s-1.1308256-1.345459-1.4769571-2.1531677C0.1942682,288.7704163,0.0106215,287.9023743,0,287.0236206v-29.3765869
	c0.007054-0.881012,0.1881061-1.7519684,0.5326159-2.562851c0.3445909-0.8109589,0.8459098-1.5457916,1.4751732-2.1624146
	c0.6293447-0.616684,1.3742285-1.1030121,2.1919227-1.4310608s1.6921439-0.4913483,2.5731611-0.4805603h3.5904751
	c1.6709824-2.2470551,3.0509672-4.6964111,4.1072807-7.2897644c1.2465267-3.036377,2.2559757-6.1647644,3.0192642-9.3569794
	c0.843235-3.4001007,1.5232544-6.9089203,2.0672207-10.5266418c0.5440483-3.61763,0.8976402-7.2081146,1.1425018-10.8801575
	l0.7071819-10.5266418c0.1096191-1.8286743,0.9063148-3.5483856,2.2304344-4.8145447
	c0.6463718-0.6334686,1.41185-1.1326904,2.2521648-1.4688416c0.8403969-0.3361664,1.7389278-0.502533,2.6439457-0.489563h50.0490341
	c0.8924484-0.0109558,1.7780838,0.156723,2.6047821,0.4932861c0.8266907,0.3364868,1.5776596,0.8349609,2.208786,1.466095
	c0.6311264,0.6310425,1.1296082,1.3820953,1.466095,2.208786c0.3364792,0.8266144,0.5041504,1.7123413,0.4932098,2.6047821
	v48.5801849h6.5825729c0.878746-0.010788,1.7510071,0.1516113,2.5669174,0.4779663
	c0.8159943,0.326355,1.5596619,0.8102417,2.1885986,1.4240112c0.6289444,0.6137848,1.1308289,1.3454437,1.4769592,2.153244
	c0.3461304,0.807724,0.5297775,1.6757812,0.5404816,2.5544434V286.99646
	c0.0107803,0.8787537-0.1517029,1.7509155-0.4780502,2.566925c-0.3263474,0.815979-0.8102341,1.5596619-1.4240112,2.1885986
	s-1.3454437,1.1308289-2.1531677,1.4769592c-0.8078003,0.3461914-1.675766,0.5297852-2.554512,0.5404663H80.5407867
	c-0.8787537,0.0108032-1.7510147-0.1516113-2.5670013-0.4779663c-0.8159103-0.326355-1.5595779-0.8102417-2.1885223-1.4241028
	c-0.6289368-0.6137695-1.1308212-1.3454285-1.4769516-2.1531372c-0.3462143-0.8078308-0.5298615-1.6758728-0.5404816-2.5545959
	v-11.206604H24.8068142L24.8340569,286.8604126z"/>
<path fill="#0073E6" d="M161.325531,226.8282166c-0.0552063-2.8643188-1.2378387-5.5912933-3.2912903-7.5890198
	c-1.2864075-1.2237549-2.815506-2.1636353-4.4883575-2.7587585c-1.67276-0.595047-3.4519806-0.8320465-5.22229-0.6956787
	c-3.6529846-0.2791443-7.2937317,0.678894-10.3361053,2.7200928c-2.5228882,2.1736755-4.4039459,4.9953461-5.440155,8.1601562
	L161.325531,226.8282166z M133.363327,244.6445312c1.1464691,3.6068573,3.6677399,6.616806,7.0177307,8.3777771
	c3.6194153,1.8446655,7.6342773,2.7783051,11.696228,2.7200775c2.6214905,0.0228729,5.2406921-0.1590729,7.8338013-0.5440369
	c2.250473-0.3550568,4.4569855-0.9476776,6.5825043-1.7680359c1.2537384-0.4647522,2.5798035-0.7041931,3.9169006-0.7071838
	c1.2912903-0.0493011,2.5691833,0.2763977,3.6793365,0.9376831c1.1102295,0.6613007,2.0052032,1.6298828,2.5768127,2.7887726
	l2.7200775,5.7120972c0.4988861,0.9954834,0.7507172,2.0963135,0.7343445,3.2096252
	c0.051239,1.1789246-0.2206116,2.3493042-0.7863159,3.3848572c-0.5656891,1.0354919-1.403656,1.8967285-2.4233246,2.4905396
	c-4.3840942,2.537262-9.1382294,4.3728333-14.0898743,5.440094c-4.4847107,0.8385925-9.0378571,1.2574768-13.6003113,1.2512207
	c-6.1371307,0.0821228-12.2381744-0.9500122-18.0066986-3.0465088c-5.0764313-1.8734436-9.707901-4.7820435-13.6003189-8.5408936
	c-3.8209839-3.7853394-6.7967072-8.3370972-8.7313614-13.355545c-2.1201706-5.5188141-3.1813431-11.3877106-3.1280746-17.2995148
	c-0.0282974-5.5917816,1.0341797-11.1353149,3.1280746-16.3203125c1.9867859-5.0640259,4.9540024-9.6858368,8.7313614-13.6003113
	c3.8585281-3.933609,8.4889374-7.0267334,13.6003189-9.0849609c5.7283173-2.2672424,11.8467102-3.3855896,18.0066986-3.2912903
	c5.0213776-0.0005646,10.0001831,0.921402,14.688324,2.7200775c4.6094971,1.7306671,8.8321533,4.3537598,12.4261932,7.7190857
	c3.5939636,3.3653107,6.4886932,7.4066772,8.5182037,11.8925171c2.1854401,4.8729248,3.280838,10.1642151,3.2096405,15.5043182
	c0.0364838,2.6759796-0.145462,5.3504791-0.5439606,7.9969482c-0.3270874,1.4329224-1.1096649,2.721283-2.2304382,3.6721191
	c-1.018692,1.0276031-2.3893585,1.6302795-3.8352509,1.6863861L133.363327,244.6445312z"/>
<path fill="#0073E6" d="M225.1133575,275.814209c-0.8787384,0.0107727-1.7510071-0.1516113-2.5669098-0.4779663
	c-0.8159943-0.326355-1.5596619-0.8102417-2.1885986-1.4240112c-0.6289368-0.6138611-1.1308289-1.345459-1.4770355-2.1532593
	c-0.3461304-0.8077087-0.5297852-1.6757507-0.5404053-2.5545044v-46.8393097h-16.3203125
	c-0.8787384,0.010788-1.7510071-0.1517029-2.5670013-0.4780579c-0.8159027-0.3263397-1.5595703-0.8102264-2.1885071-1.4240112
	c-0.6289368-0.6137695-1.1308289-1.3454437-1.4769592-2.1531525c-0.3462219-0.8078156-0.5298615-1.675766-0.5404816-2.5545197
	v-13.3555298c-0.0109406-0.8924561,0.156723-1.7780914,0.4932861-2.6047821
	c0.3364868-0.8266144,0.8348846-1.5776672,1.4660187-2.208786c0.6311188-0.631134,1.3821716-1.1296082,2.2088623-1.466095
	c0.8266144-0.3364868,1.7122498-0.5041656,2.6047821-0.4932098h59.5148163
	c0.8858032-0.0035706,1.7637329,0.1673431,2.5835571,0.5030212c0.8197937,0.3357544,1.5653992,0.8296051,2.1943359,1.4535217
	c0.6289368,0.6238251,1.1288147,1.3654785,1.4711304,2.1825104c0.3423157,0.8171387,0.5202942,1.6936035,0.5238647,2.5794983
	v13.3010406c0.0035706,0.8858795-0.1673584,1.7637329-0.5030212,2.5835419
	c-0.3357544,0.8197937-0.8296204,1.5654144-1.4535217,2.1943512c-0.6238403,0.6289368-1.3654785,1.1288757-2.1825256,1.4711151
	c-0.8171387,0.3423309-1.6936035,0.5202942-2.5794983,0.5238647h-16.3202972v46.6761627
	c0.0107727,0.8787537-0.1516266,1.7510071-0.4779663,2.5670166c-0.326355,0.815918-0.8102417,1.5595703-1.4240112,2.1885071
	c-0.6137848,0.6289368-1.345459,1.1308289-2.1531677,1.4769592c-0.8078003,0.3462219-1.6758575,0.5298462-2.5545959,0.5404968
	h-0.1631317L225.1133575,275.814209z"/>
<path fill="#0073E6" d="M333.1790161,221.6585388c-3.7873535-2.0255432-8.0005798-3.125473-12.2946777-3.2097168
	c-2.1213989-0.0014648-4.2276001,0.3572388-6.2289124,1.0608521c-2.0115967,0.7297974-3.8600769,1.8481445-5.440155,3.2912903
	c-1.6957092,1.5226898-3.065155,3.3733368-4.0256348,5.4400787c-1.0370178,2.3548126-1.5475769,4.9076233-1.4960022,7.4801331
	c-0.0560303,2.5320587,0.4941711,5.0408325,1.6048279,7.3170013c0.9992065,2.0578156,2.3843079,3.9045715,4.0800171,5.4400787
	c3.3018494,2.905426,7.5429688,4.5188446,11.9411011,4.542511c4.4512024-0.0807495,8.7852783-1.4404602,12.4849548-3.9169006
	c1.4446106-1.0541229,3.1894531-1.6166534,4.9777832-1.6048126c1.0579224-0.0130615,2.1036072,0.2270203,3.0498962,0.700119
	c0.9463806,0.4731903,1.7658386,1.1657715,2.3901672,2.0199585l5.4400635,7.3169098
	c0.9317017,1.2290955,1.4377136,2.7281799,1.4417114,4.2705078c0.0303955,1.1135559-0.214386,2.2173767-0.7125549,3.2137756
	c-0.4981384,0.9963989-1.234436,1.8545532-2.1434937,2.4983215c-4.4382629,3.7790527-9.5904236,6.6279907-15.1507568,8.3777771
	c-4.4247742,1.2609558-8.9993896,1.9197388-13.6002197,1.9584045c-6.2789307,0.0802002-12.522522-0.9511414-18.4420166-3.0464172
	c-5.2238464-1.8520508-10.0107422-4.7593384-14.0626221-8.5409851c-3.9168396-3.7441406-6.962677-8.3035889-8.9218445-13.3554688
	c-2.1201477-5.5188751-3.1813354-11.3877869-3.1280518-17.2995911c-0.0270996-5.5839081,1.0067749-11.1221771,3.0465088-16.3203125
	c1.9587097-5.0606232,4.927063-9.669632,8.7242126-13.5463104c3.7971497-3.8766174,8.3436584-6.939743,13.3625793-9.0028992
	c5.4850769-2.2542877,11.3699646-3.3739166,17.29953-3.2912903c4.8428345-0.0605774,9.6775818,0.4138336,14.4162903,1.414444
	c4.861084,1.1883087,9.4681702,3.243042,13.6003418,6.0656891c1.148407,0.5953674,2.1170654,1.4866028,2.8056946,2.5817566
	c0.6885986,1.0950623,1.072113,2.3541565,1.1111145,3.6471405c-0.0053406,1.2140198-0.3749084,2.3984375-1.0607605,3.4001007
	l-5.1681519,8.5410004c-0.5853882,1.0944977-1.4613953,2.0062408-2.5315552,2.6349335
	c-1.0701904,0.6286926-2.2931213,0.9499359-3.5341187,0.9282837
	C335.6694031,222.673996,334.3460693,222.3267212,333.1790161,221.6585388z"/>
<path fill="#0073E6" d="M393.0202637,237.4099884v31.5254364c0.0108643,0.8786926-0.1516113,1.750946-0.4778748,2.566925
	c-0.3264465,0.815918-0.8103333,1.5596619-1.4241028,2.1885986s-1.345459,1.1308289-2.1531677,1.4769592
	s-1.6757812,0.5297852-2.5545044,0.5404053h-13.3554688c-0.8888855,0.0137939-1.7712708-0.1526794-2.5940857-0.4892273
	c-0.8227844-0.3366699-1.5688782-0.8363647-2.1932068-1.4691772c-0.644104-0.621582-1.151001-1.3710632-1.4883118-2.2001953
	c-0.3372803-0.8291321-0.4974365-1.719635-0.4701843-2.6142883v-66.6413574
	c-0.0107727-0.8787384,0.1517029-1.7510071,0.4780579-2.5669861c0.326355-0.815918,0.8102417-1.5595856,1.4240112-2.1885223
	s1.3454285-1.1308289,2.1531677-1.4769592c0.8078003-0.3461304,1.6758423-0.5298615,2.5545044-0.5404816h13.3282776
	c0.8924561-0.0109406,1.7781067,0.1568146,2.6047058,0.4932861c0.8266907,0.3364868,1.5776672,0.8349762,2.2088013,1.466095
	c0.631134,0.631134,1.1296082,1.3820953,1.4662476,2.208786c0.3364868,0.8267059,0.5041504,1.7123413,0.4931335,2.6047821
	v28.1526031l20.6725464-30.4646759c0.9719849-1.3175507,2.2147827-2.411972,3.6447144-3.2096405
	c1.4435425-0.8178558,3.0739136-1.2488861,4.7329712-1.251236h12.4577942
	c0.9400635-0.0251312,1.8742676,0.1540527,2.7384033,0.5249939c0.8640137,0.3710327,1.6373596,0.9250488,2.2665405,1.6238708
	c1.2546387,1.2886963,1.9572754,3.0159454,1.9584045,4.8144684c-0.0251465,1.4842529-0.5203857,2.922287-1.4143677,4.1072845
	l-17.807312,23.3274994c-0.7312012,0.957962-0.7449646,2.2830505-0.0335693,3.2559357l7.5318604,10.3005219
	c2.3036499,3.5487061,5.7479248,6.2063599,9.7649841,7.5345306c2.0688171,0.2653809,3.9865417,1.2242279,5.440155,2.7200775
	c1.032135,1.7770386,1.4970703,3.826828,1.3327942,5.8753204v10.8802185
	c-0.0245056,1.4607544-0.597229,2.8589172-1.6049194,3.9169312c-0.9526672,1.1434631-2.2850037,1.906189-3.7536926,2.1487732
	c-0.9518738,0-1.8223572,0.2176208-2.7199097,0.2720337c-0.8977051,0.0543823-1.7137146,0-2.7200623,0
	c-2.2481995-0.0171204-4.4892578-0.2539368-6.6914062-0.7072754c-2.4330444-0.5608215-4.7702637-1.477356-6.9360657-2.7200012
	c-2.5553284-1.4155579-4.8992004-3.1827087-6.9633484-5.2496948c-2.6430359-2.6599121-5.0037842-5.5859375-7.0448914-8.7313538
	L393.0202637,237.4099884z"/>
<path fill="#0073E6" d="M523.3934937,275.8164062c-0.8787231,0.0106812-1.7509766-0.1516418-2.5669556-0.4780579
	c-0.81604-0.3262634-1.5596924-0.8102417-2.1887207-1.4240112c-0.6288452-0.6137695-1.1307373-1.3453674-1.4768066-2.1531677
	c-0.3461914-0.8077393-0.5297241-1.6757812-0.5404663-2.5545044v-35.3607178l-25.486908,37.4007568
	c-0.8855591,1.2673035-2.0021973,2.3562012-3.2913513,3.2096558c-1.291626,0.8454895-2.8084717,1.2816162-4.3520813,1.2512207
	h-15.3410034c-0.8889771,0.0137024-1.7713013-0.1527405-2.5940857-0.4893188
	c-0.8228149-0.3365479-1.5689087-0.8363342-2.1932373-1.4691772c-0.644104-0.6215515-1.151001-1.3709717-1.4883118-2.2001038
	c-0.3372803-0.8291321-0.497345-1.719635-0.4700928-2.6143494v-66.6413727
	c-0.0108643-0.8787384,0.1516113-1.7509155,0.4778748-2.5669098c0.3264465-0.8159943,0.8103333-1.5596619,1.4241028-2.1885986
	s1.345459-1.1308289,2.1531677-1.4769592s1.6757812-0.5297852,2.5545044-0.5404053h13.3283081
	c0.8925171-0.0110168,1.7780762,0.1567383,2.6047668,0.4932098c0.8266907,0.3364868,1.5776672,0.8349762,2.2088013,1.466095
	c0.631134,0.631134,1.1296082,1.3821716,1.466095,2.208786c0.3364868,0.8266907,0.5041504,1.7123413,0.4932861,2.6047821v35.115921
	l25.4869385-37.4279175c0.8855591-1.2395477,1.9700317-2.3240051,3.2095947-3.2097168
	c1.2614746-0.8454285,2.7523804-1.2822113,4.2705078-1.2511597h15.5043335
	c0.892334-0.0110168,1.7780762,0.1567383,2.6047974,0.4932098c0.8266602,0.3364868,1.5776367,0.8349762,2.2087402,1.466095
	c0.6311646,0.631134,1.1296387,1.3821716,1.4661255,2.208786c0.3364868,0.8266907,0.5041504,1.7123413,0.4932861,2.6047821
	v66.6413727c0.0106812,0.8787537-0.1516113,1.7510071-0.4780273,2.566925
	c-0.3262939,0.815979-0.8103638,1.5596619-1.4241333,2.1885986s-1.3452759,1.1308289-2.1531372,1.4769592
	c-0.8077393,0.3461914-1.6757812,0.5298462-2.5545044,0.5404663h-0.163147L523.3934937,275.8164062z"/>
<path fill="#0073E6" d="M621.0427856,160.5398712c1.4970703-0.1109924,3.0006104,0.1011047,4.4085083,0.6220551
	c1.4078369,0.5209351,2.6873169,1.3384705,3.7515869,2.3972168c1.8817139,2.1743164,2.8554688,4.9886932,2.7200317,7.8609619
	c-0.0630493,2.3800354-0.7271118,4.7054901-1.9303589,6.759903c-1.203064,2.0544891-2.9063721,3.771286-4.951355,4.9907379
	c-4.5697021,3.2096405-11.369751,4.8145294-20.4004517,4.8145294c-9.9916992,0-17.1452026-1.6048889-21.4611206-4.8145294
	c-1.9691162-1.2701263-3.5931396-3.007843-4.727478-5.058197c-1.1342773-2.0502777-1.7435303-4.349472-1.7735596-6.6924438
	c-0.1000366-2.8670807,0.8695068-5.6688843,2.7200928-7.8609619c1.0511475-1.0769043,2.3286133-1.9065247,3.7400513-2.4287567
	c1.4113159-0.5222473,2.9212036-0.7238922,4.420166-0.5905151c2.4146118-0.2159119,4.824646,0.4615936,6.7730103,1.9040833
	c1.4329834,1.3051605,2.4776001,2.9805908,3.0192261,4.8417053c0.5401611,1.4956055,1.3934326,2.8588104,2.5025024,3.9984741
	c1.3916016,1.1496429,3.1792603,1.7064209,4.9776611,1.550415c0.8104858,0.065918,1.6257935-0.0379486,2.3937988-0.3048553
	c0.7681274-0.2669983,1.4721069-0.6912079,2.0670776-1.2455597c1.0219116-1.1708832,1.8069458-2.5288086,2.3118896-3.9984741
	c0.545166-1.8659668,1.6003418-3.5427856,3.0466919-4.8417053
	C616.4831543,161.0614624,618.7524414,160.385498,621.0427856,160.5398712z M624.9595947,275.8158264
	c-0.8787231,0.0107727-1.7508545-0.1516113-2.5668335-0.4779663s-1.5596313-0.8102417-2.1886597-1.4241028
	c-0.6288452-0.6137695-1.1307373-1.3453674-1.4769897-2.1531677c-0.3460083-0.8077087-0.5297852-1.6757507-0.5404663-2.5545044
	v-35.3607025l-25.4868774,37.4007721c-0.885437,1.2672729-2.0020752,2.3561707-3.2912598,3.2096252
	c-1.2915649,0.84552-2.8084106,1.2816467-4.3520508,1.2512207h-15.2323608
	c-0.8787231,0.0108032-1.7510376-0.1516724-2.5670166-0.4779663c-0.8157959-0.3263245-1.5595093-0.8102112-2.1884766-1.4240112
	c-0.6289062-0.6137695-1.1307983-1.3454285-1.4769897-2.1532288c-0.3461914-0.8077393-0.5297852-1.6757812-0.5402832-2.5545044
	v-66.6957855c-0.0110474-0.8924561,0.1566162-1.7780914,0.493103-2.6047821
	c0.3364868-0.8266144,0.8349609-1.577652,1.4660645-2.208786c0.6311646-0.631134,1.3822632-1.1296082,2.2089844-1.466095
	c0.8265381-0.3364868,1.7122192-0.5041504,2.6046143-0.4932098h13.1923828
	c0.892395-0.0109406,1.7780762,0.156723,2.6046143,0.4932098c0.8267212,0.3364868,1.5778198,0.8349609,2.2089844,1.466095
	c0.6309204,0.631134,1.1295776,1.3821716,1.4660645,2.208786c0.3364868,0.8266907,0.5041504,1.712326,0.4931641,2.6047821
	v35.0071106l25.4868774-37.4279175c0.8857422-1.2394714,1.9702759-2.3240051,3.2098389-3.2096405
	c1.2612915-0.8455048,2.7521362-1.2822876,4.2703247-1.251236h15.5044556
	c0.892395-0.0109406,1.7779541,0.156723,2.6046143,0.4932098c0.8267212,0.3364868,1.5776978,0.8349609,2.2088013,1.466095
	s1.1296387,1.3821716,1.4662476,2.208786c0.3364868,0.8266907,0.5041504,1.7123413,0.4931641,2.6047821v66.6413574
	c0.0108643,0.8787537-0.1516113,1.7510071-0.4779053,2.566925c-0.326416,0.815979-0.8103027,1.5596619-1.4240723,2.1885986
	c-0.6138306,0.6289368-1.345459,1.1309204-2.1531982,1.4770508s-1.6757812,0.5297546-2.5545044,0.5403748h-0.163147
	L624.9595947,275.8158264z"/>
<path fill="#0073E6" d="M726.8793945,269.0419006c0.0108643,0.8787537-0.1516113,1.7510071-0.4779053,2.5669861
	c-0.326416,0.815918-0.8103027,1.5596008-1.4240723,2.1885986c-0.6137695,0.6289368-1.345459,1.1307678-2.1531982,1.4768982
	c-0.8076782,0.3461914-1.6757812,0.5297546-2.5545044,0.5404663h-13.3555298
	c-0.8787231,0.0107727-1.7508545-0.1516113-2.5668335-0.4779663s-1.5596313-0.8102417-2.1886597-1.4240112
	c-0.6289062-0.6137695-1.1307373-1.345459-1.4769897-2.1532593c-0.3461914-0.8077087-0.5297852-1.6757507-0.5402832-2.5545044
	V202.400528c-0.0110474-0.8924408,0.1566162-1.7780914,0.493103-2.6046906
	c0.3364868-0.8267059,0.8349609-1.5777435,1.4661255-2.2088776c0.6311035-0.6311188,1.3822021-1.1296082,2.2089233-1.466095
	c0.8265381-0.3364716,1.7122192-0.5041504,2.6046143-0.4932098h12.6483765
	c1.5797729,0.0353546,3.131958,0.422348,4.5435791,1.1328583c1.411438,0.7104187,2.6469116,1.7265167,3.6164551,2.9744263
	l20.4819946,23.1748352l18.8772583-22.9844666c0.9971313-1.2518768,2.2138062-2.3117523,3.5903931-3.128067
	c1.342041-0.7906189,2.8764038-1.1953583,4.4338379-1.1695862h11.940979
	c0.892395-0.0109406,1.7780762,0.1567383,2.6047974,0.4932098c0.8266602,0.3364868,1.5776367,0.8349762,2.2087402,1.466095
	c0.6311646,0.631134,1.1296387,1.3821716,1.4661255,2.2088776c0.3364868,0.8265991,0.5043335,1.7122498,0.4932861,2.6046906
	v66.6413727c0.0108643,0.8787537-0.1516113,1.7510071-0.4779053,2.5669861
	c-0.326416,0.815918-0.8103027,1.5596008-1.4240723,2.1885986c-0.6137695,0.6289368-1.345459,1.1307678-2.1531372,1.4768982
	c-0.8077393,0.3461914-1.6757812,0.5297546-2.5545654,0.5404663h-13.3827515
	c-0.8858643,0.0035706-1.7637939-0.1673584-2.5835571-0.5030212c-0.8198853-0.3357544-1.5654907-0.8296204-2.1943359-1.4535217
	c-0.6290283-0.6239014-1.1287842-1.3654785-1.4711304-2.1825867c-0.3422852-0.8170471-0.5203857-1.6935425-0.5239258-2.5794067
	v-32.6406403L752.0670776,253.59198c-0.5738525,0.6730499-1.2868652,1.2136993-2.0899048,1.5846405
	c-0.8028564,0.3709412-1.6767578,0.5634155-2.5613403,0.5642242c-0.862854,0.0010529-1.7169189-0.1717987-2.5115356-0.5082855
	c-0.7943726-0.3364868-1.5129395-0.8296967-2.1126099-1.450119l-15.8578491-17.2723541L726.8793945,269.0419006z"/>
<path fill="#0073E6" d="M875.4780273,275.8152466c-0.8787842,0.0108032-1.7510376-0.1516113-2.5670166-0.4779663
	c-0.8158569-0.3263245-1.5596924-0.8102112-2.1885376-1.4240723c-0.6290283-0.6138-1.1309204-1.3453674-1.4769287-2.1531677
	c-0.3462524-0.8077393-0.5297852-1.6757812-0.5405273-2.5545349v-35.3606873l-25.4596558,37.4007568
	c-0.8884888,1.2741699-2.0155029,2.3641357-3.3186035,3.2096558c-1.291626,0.8454895-2.8084717,1.2816162-4.3519287,1.2512207
	h-15.3139038c-0.8787842,0.0107727-1.7510376-0.1516113-2.5670166-0.4780579
	c-0.815979-0.3262634-1.5596313-0.8101501-2.1885376-1.4239197c-0.6289673-0.6137695-1.1308594-1.345459-1.4769287-2.1532593
	c-0.3461914-0.8077087-0.5299683-1.6757507-0.5404663-2.5545044v-66.6957703
	c-0.0110474-0.8924561,0.1567993-1.7780914,0.4932861-2.6047821c0.3364868-0.8266144,0.8347778-1.5776672,1.4659424-2.208786
	c0.6311035-0.631134,1.3822632-1.1296082,2.2089233-1.466095c0.8265381-0.3364868,1.7122803-0.5042419,2.6047974-0.4932098
	h13.164978c0.8925171-0.0110321,1.7780762,0.156723,2.6047974,0.4932098
	c0.8266602,0.3364868,1.5776367,0.8349609,2.2088013,1.466095c0.6311035,0.6311188,1.1295776,1.3821716,1.4660645,2.208786
	c0.3364868,0.8266907,0.5041504,1.712326,0.4932861,2.6047821v35.0071106l25.4869385-37.4279175
	c0.9302979-1.2167816,2.0618286-2.2654724,3.3457031-3.1009216c1.2612915-0.8454285,2.7523193-1.282196,4.2704468-1.2511444
	h15.5043335c0.892395-0.0110321,1.7780762,0.156723,2.6047974,0.4932098s1.5776367,0.8349609,2.2088013,1.466095
	c0.6311035,0.6311188,1.1295776,1.3821716,1.4660645,2.208786c0.3364868,0.8266907,0.5041504,1.712326,0.4932861,2.6047821
	v66.6413574c0.0107422,0.8787537-0.1517944,1.7510071-0.4780273,2.5670166
	c-0.326416,0.8158875-0.8101807,1.5595703-1.4239502,2.1885071s-1.3455811,1.1308289-2.1533203,1.4769592
	c-0.8077393,0.3462219-1.6757812,0.5297852-2.5545044,0.5404663h-13.6002197H875.4780273z"/>
<path fill="#0073E6" d="M941.7630005,249.973938c1.7336426,1.0875244,3.6233521,1.9038391,5.6033325,2.4208984
	c2.2630615,0.4665375,4.5715942,0.6764526,6.8817139,0.6256104c2.4137573,0.1927338,4.8392334-0.1817017,7.0825195-1.0932007
	c2.2433472-0.911499,4.2424927-2.3348694,5.8377686-4.1564941c2.8256836-3.6405945,4.296936-8.150589,4.1617432-12.7570801
	c0.1115112-4.2684784-1.3065796-8.4360809-3.9984131-11.7506409c-1.4472656-1.6414642-3.2519531-2.9290161-5.2749023-3.7637329
	c-2.0229492-0.8346405-4.2105103-1.1940765-6.394165-1.0507202c-2.6949463,0.109375-5.3338013,0.803421-7.7337646,2.0339813
	c-2.4001465,1.230545-4.5040283,2.9681854-6.1658325,5.0925598V249.973938z M941.7630005,304.6742554
	c0.0108643,0.8787537-0.1516113,1.7509766-0.4778442,2.5669556c-0.3264771,0.8159485-0.8103638,1.5596619-1.4241333,2.1885681
	c-0.6137695,0.6289368-1.345459,1.1308594-2.1531372,1.4769897c-0.8077393,0.3461304-1.6757812,0.5297852-2.5545044,0.5404358
	h-13.3555298c-0.8787842,0.0108032-1.7508545-0.1516113-2.5668945-0.4779663
	c-0.815979-0.326355-1.5596313-0.8102417-2.1886597-1.4240112c-0.6288452-0.6137695-1.1307373-1.3454895-1.4769287-2.1532288
	c-0.3462524-0.8077698-0.5297852-1.6757812-0.5403442-2.5545349V202.4002075
	c-0.0110474-0.8924561,0.1566772-1.7780914,0.4931641-2.6047821c0.3364258-0.8266144,0.8349609-1.577652,1.4660645-2.208786
	s1.3822632-1.1296082,2.2089233-1.466095c0.8265381-0.3364868,1.7122803-0.5042419,2.6046753-0.4932098h14.0899048
	c0.7608643-0.0108643,1.5163574,0.1283569,2.2233887,0.4096222c0.7072144,0.281189,1.3518066,0.6989899,1.8974609,1.2294159
	c0.5455322,0.530426,0.9813843,1.1631775,1.2823486,1.8619995c0.3011475,0.6988373,0.4615479,1.4502106,0.4720459,2.2110596
	v0.1903839c2.6659546-2.4068756,5.7432251-4.3141937,9.085022-5.6305389
	c4.1925049-1.674057,8.678833-2.4881134,13.1922607-2.3936462c5.0556641-0.0552216,10.0643311,0.9743347,14.6883545,3.0192566
	c4.378479,1.9513702,8.2498779,4.8828125,11.3153687,8.5682373c3.1884155,3.8538208,5.6409302,8.2610168,7.2354126,13.0018616
	c1.7980347,5.2535095,2.717041,10.7676086,2.7200928,16.3203125c0.0263062,5.8210754-1.0345459,11.5958405-3.1280518,17.0274963
	c-1.9830933,5.1305084-4.9491577,9.8243256-8.7313843,13.8179169c-3.8587646,3.9739075-8.486145,7.1205444-13.6002197,9.2481689
	c-5.6175537,2.3320312-11.6531982,3.4891357-17.7348633,3.4000244c-2.7318726-0.004303-5.4595947-0.2134705-8.1602173-0.6255188
	c-2.3569946-0.3231812-4.6616211-0.9541626-6.8544922-1.8768616L941.7630005,304.6742554z"/>
<path fill="#F72A16" d="M301.9773254,111.3469696c-28.2382202,10.149704-37.9444885,0.883049-46.0634613-21.7051697
	l-10.4392242-29.0437431c-10.149704-28.2382088-0.8829651-37.9444847,21.7052307-46.0634537l29.0437622-10.4392385
	c28.2381897-10.1497021,37.9444885-0.8830447,46.063446,21.7052536l10.4391479,29.0437412
	c10.1497803,28.2382126,0.8830566,37.9444885-21.7051697,46.0633698L301.9773254,111.3469696z"/>
<path fill="#F8BA22" d="M430.1567688,111.3469696c28.2383118,10.149704,37.9445801,0.883049,46.0634766-21.7051697
	l10.4392395-29.0437431c10.1497803-28.2382088,0.8829651-37.9444847-21.7051697-46.0634537L435.910553,4.0953665
	c-28.2382812-10.1497021-37.9445496-0.8830447-46.063446,21.7052536l-10.4392395,29.0437412
	c-10.1496887,28.2382126-0.8829651,37.9444885,21.7051697,46.0633698L430.1567688,111.3469696z"/>
<path fill="#06C92E" d="M569.8406372,111.3469696c-28.2382812,10.149704-37.9445801,0.883049-46.0634766-21.7051697
	l-10.439209-29.0437431c-10.1497803-28.2382088-0.8829956-37.9444847,21.7051392-46.0634537L564.086853,4.0953665
	c28.2382812-10.1497021,37.9445801-0.8830447,46.0634766,21.7052536l10.439209,29.0437412
	c10.1497803,28.2382126,0.8829956,37.9444885-21.7051392,46.0633698L569.8406372,111.3469696z"/>
<path fill="#00C2FC" d="M698.0227661,111.3469696c28.2382812,10.149704,37.9445801,0.883049,46.0634766-21.7051697
	l10.439209-29.0437431c10.1497803-28.2382088,0.8829956-37.9444847-21.7051392-46.0634537L703.7765503,4.0953665
	c-28.2382812-10.1497021-37.9445801-0.8830447-46.0634766,21.7052536l-10.439209,29.0437412
	c-10.1497803,28.2382126-0.8829956,37.9444885,21.7051392,46.0633698L698.0227661,111.3469696z"/>
</svg>
