<?xml version="1.0" encoding="utf-8"?>
<!-- Generator: Adobe Illustrator 28.0.0, SVG Export Plug-In . SVG Version: 6.00 Build 0)  -->
<svg version="1.1" id="Слой_1" xmlns="http://www.w3.org/2000/svg" xmlns:xlink="http://www.w3.org/1999/xlink" x="0px" y="0px"
	 viewBox="0 0 1000 803.1174927" enable-background="new 0 0 1000 803.1174927" xml:space="preserve">
<path fill="#FFBF2F" d="M512.2474976,650.5672607h-73.7616577l48.9681091,48.2537231h24.7935486
	c6.9848633,0,12.6640015,5.6820679,12.6640015,12.6640625s-5.6820679,12.6553955-12.6640015,12.6553955H487.453949v-25.319458
	h-48.1594849v96.623291h48.1594849v-23.1414185h24.7935486c33.5447998,0,60.8293457-27.2830811,60.8293457-60.8178101
	C573.0768433,677.9517822,545.7922974,650.5672607,512.2474976,650.5672607z M663.9716797,647.3341675
	c-42.9440308,0-77.8916626,34.9476929-77.8916626,77.8916626c0,42.9440918,34.9476318,77.8916626,77.8916626,77.8916626
	c42.9425659,0,77.8916626-34.9475708,77.8916626-77.8916626
	C741.8633423,682.2818604,706.9142456,647.3341675,663.9716797,647.3341675z M663.9716797,754.9522095
	c-16.4159546,0-29.7277832-13.3582153-29.7277832-29.7263794c0-16.368042,13.3118286-29.7263184,29.7277832-29.7263184
	c16.4145508,0,29.7263794,13.3582764,29.7263794,29.7263184
	C693.6980591,741.5939941,680.3862305,754.9522095,663.9716797,754.9522095z M413.6097717,650.5672607v144.8770142h-48.1232605
	V691.1419678h-49.2709961v104.3023071h-48.123291V650.5672607H413.6097717z"/>
<path fill="#20282B" d="M838.5838013,462.1984253v144.8828125h-49.9636841V553.046936h-47.9406738v54.0343018h-49.9927368
	V462.1984253h49.9927368v49.9332275h47.9406738v-49.9332275H838.5838013z M28.6160183,462.1868286l-1.8960648,57.1152344
	c-0.2625828,9.1310425-0.8751392,17.4738159-1.8085346,24.7948608c-0.9335403,7.1472168-2.6254196,12.8641357-5.0756378,17.0057373
	c-3.0337887,5.1054077-8.0801554,6.7385254-15.4310989,5.1633301L0,565.3327637v41.3630371l1.2543819,0.3216553
	c3.850384,0.9622803,7.5549822,1.6331787,10.9971409,2.0708618c3.4128885,0.4086304,6.7091169,0.6129761,9.7429094,0.6129761
	c10.0344753,0,18.4063396-2.3041382,24.8237476-6.7965088c6.3884163-4.4923706,11.3765259-10.1802368,14.8769417-18.4940186
	c3.4420166-8.1674194,5.8923798-18.0273438,7.3216705-29.3162231c1.4292908-11.2019043,2.3628387-23.8326416,2.7712097-37.5126343
	l0.4375-14.9653625h29.3744888v104.4299011h50.3474426V462.1868286H28.6160183z M223.9222107,567.8702393v-16.5623169h67.6085205
	v-35.4070435h-67.6085205v-14.5378113h75.9005432v-39.1646423H173.8570862v144.8364258h128.5973206v-39.1646118H223.9222107z
	 M457.088562,462.1954956l-43.2642822,48.4928284l-43.2657471-48.4928284h-52.7866516v144.8538818h50.0332642v-68.5446777h0.3260498
	l0.140564,0.140564l45.4119263,44.5714111l45.9727783-45.1785889l0.0463867,0.0941772v0.6057739l0.1405029,68.3113403h49.9854736
	V462.1954956H457.088562z M855.3619995,530.6647949v76.3845825h47.6523438v-76.3845825
	c0-13.3959351,11.1554565-24.3166504,24.5499878-24.3166504c13.3944702,0,24.3630371,10.9207153,24.3630371,24.3166504v28.3757324
	h-48.3522339l47.3247681,48.0088501H1000v-76.3845825c0-39.9051514-32.5305176-72.342865-72.4356689-72.342865
	C887.7055054,458.3219299,855.3619995,490.7596436,855.3619995,530.6647949z M599.0658569,458.3219299
	c-39.9036865,0-72.4356689,32.4377136-72.4356689,72.342865v76.3845825h49.1000366l47.3262939-48.0088501h-48.3536987v-28.3757324
	c0-13.3959351,10.9221802-24.3166504,24.3630371-24.3166504c13.4422607,0,24.5499878,10.9207153,24.5499878,24.3166504v76.3845825
	h47.6523438v-76.3845825C671.2681885,490.7596436,638.9246216,458.3219299,599.0658569,458.3219299z"/>
<path fill="#C5861E" d="M574.2202148,73.4514847l-60.4960938,87.1141739l54.7313843,54.0691376v84.5374451H451.1209717
	l-19.6881409,90.4920044h242.4206238v-217.699585L574.2202148,73.4514847z"/>
<path fill="#855D12" d="M431.4328308,299.1534119v90.4920044l19.6925049-90.4920044H431.4328308z"/>
<path fill="#855D12" d="M499.9427185,146.8944092L574.21875,73.4514847l-60.5177612,87.0460739L499.9427185,146.8944092z"/>
<path fill="#FFBF2F" d="M499.968811,0L326.0581055,171.9559631v217.6966858h105.4008179V299.160675v-84.5389099
	l68.5098877-67.7404022l74.2745972-73.439003L499.968811,0z"/>
</svg>
