<?xml version="1.0" encoding="utf-8"?>
<!-- Generator: Adobe Illustrator 28.0.0, SVG Export Plug-In . SVG Version: 6.00 Build 0)  -->
<svg version="1.1" id="Слой_1" xmlns="http://www.w3.org/2000/svg" xmlns:xlink="http://www.w3.org/1999/xlink" x="0px" y="0px"
	 viewBox="0 0 1000 119.63871" style="enable-background:new 0 0 1000 119.63871;" xml:space="preserve">
<style type="text/css">
	.st0{fill-rule:evenodd;clip-rule:evenodd;fill:#0035F9;}
</style>
<path class="st0" d="M167.6913452,12.5759373l-1.077652,0.7320757l13.1370544,17.4475479l1.0329742-0.8621101
	c7.4307861-6.246912,20.3110046-10.4479923,39.3700256-10.4479923c26.3833008,0,40.8373108,7.9916477,45.5310669,18.3951645
	h-46.779953v19.5138397h45.0558319c-6.0075684,8.8298492-20.1159973,15.2888565-43.8069458,15.2888565
	c-19.0178833,0-31.8947601-4.1976852-39.3255615-10.4445992l-1.032959-0.8621101l-13.1610718,17.4885788l1.0983276,0.7321243
	c11.8025665,7.8616409,29.1850739,12.6203613,52.4212646,12.6203613c23.2393036,0,41.7610474-5.0597687,53.5638428-13.3730011
	c11.8472595-8.3576813,17.6184387-19.9449234,17.6184387-32.7158356s-5.7951965-24.3786125-17.638916-32.7157822
	C261.8943481,5.0597959,244.1251221,0,220.1537476,0c-23.9682617,0-40.6596222,4.7587495-52.4624023,12.6204138V12.5759373z
	 M0,88.2810593l0.4105133-1.549736c7.3418407-28.0426407,17.078064-48.7607193,29.7189922-62.4826393
	c12.6854057-13.7835703,28.2581825-20.437603,47.0605736-20.437603c18.8021774,0,34.3509445,6.6779928,47.0603561,20.437603
	c12.6409378,13.72192,22.3978195,34.4605675,29.7190018,62.5236702l0.4105072,1.5497665h-23.9511414l-0.2359467-0.9031677
	c-7.6667404-27.1599922-16.7976379-42.3632889-26.0172729-50.785965
	C95.0002136,28.2547379,85.6331635,26.510004,77.1900787,26.510004c-8.4432983,0-17.8103523,1.7686939-26.9650497,10.1229839
	c-9.2165031,8.4226761-18.3712006,23.6054573-26.017271,50.7654495l-0.2566242,0.9031677H0V88.2810593z M705.9951782,88.3221207
	l0.4072266-1.5497665c7.3449707-28.0631027,17.081604-48.7811852,29.72229-62.5236702
	c12.7058716-13.7835703,28.2786865-20.437603,47.0603638-20.437603c18.7783813,0,34.3716431,6.6779928,47.0570068,20.4615116
	c12.6445312,13.7390919,22.3773804,34.4571762,29.7223511,62.4997635l0.4071655,1.5497665h-23.9475708l-0.2597656-0.9031677
	c-7.6427002-27.1599922-16.7976074-42.3632889-26.013916-50.785965C800.9954224,28.2547379,791.625,26.510004,783.1850586,26.510004
	c-8.4432983,0-17.8132324,1.7686939-26.9648438,10.1229839c-9.2404785,8.4226761-18.3711548,23.6259727-26.0414429,50.785965
	l-0.2359619,0.9031677H705.9951782z M297.4941711,23.324976V3.8110816h124.787262v19.513895h-50.460968v64.9560852h-23.8619995
	V23.324976H297.4941711z M667.6140747,37.8201065c-0.1298828-3.5134811-0.7320557-6.1169319-1.7000732-8.0566387
	c-1.0332031-2.1552982-2.5215454-3.5545101-4.2868042-4.5021782c-1.8095093-0.9476147-3.9614868-1.4642029-6.3769531-1.7207737
	c-2.4321899-0.2600155-5.0393066-0.2600155-7.7074585-0.2600155h-70.491333V3.7905664h71.7399902v0.0410826
	c4.9090576,0,9.8832397,0.0444758,14.5600586,0.5404952c5.0802612,0.5371547,9.9483643,1.6147518,14.1495972,3.8555579
	c4.2216187,2.2374115,7.7521362,5.6208582,10.2084961,10.6395712c2.4321899,4.9948044,3.7907104,11.5837936,3.7907104,20.2014942
	v49.1917763h-81.3468018c-10.5334473,0-21.4089355,0-29.6367188-3.0823746
	c-4.1769409-1.5702744-7.7521362-3.9411163-10.2736816-7.581131c-2.4973145-3.6400146-3.8758545-8.3987656-3.8758545-14.5567245
	c0-6.1613541,1.37854-10.9440117,3.8758545-14.5601196c2.5215454-3.6400185,6.0967407-6.0108566,10.2736816-7.5811348
	c8.2277832-3.0789528,19.1032715-3.0789528,29.6367188-3.0789528H667.6140747z M610.324707,68.8116684h57.3098755V57.3750305
	H610.324707c-5.3847046,0-10.553894,0-14.409729,0.83815c-1.9155884,0.410511-3.3354492,1.0126572-4.28302,1.7892075
	c-0.8861694,0.7526436-1.402771,1.7003098-1.402771,3.0790062s0.5166016,2.326313,1.402771,3.0789528
	c0.9475708,0.7971191,2.3674316,1.3787003,4.28302,1.7892151c3.855835,0.8381958,9.0250244,0.8381958,14.409729,0.8381958
	V68.8116684z M954.7729492,37.8201065v0.0410309h-56.0407104V3.8110816h-23.8652954v84.4699783h81.3463745
	c10.5334473,0,21.4093018,0,29.6367188-3.0789795c4.1773682-1.5736694,7.7521362-3.9445114,10.2532349-7.5810776
	C998.6210327,73.9809341,1000,69.2187881,1000,63.0608292c0-6.1613541-1.3789673-10.9406204-3.8967285-14.5601196
	c-2.5010986-3.6400185-6.0758667-6.007412-10.2532349-7.5811348c-8.227417-3.0789528-19.1032715-3.0789528-29.6367188-3.0789528
	h-1.4403687V37.8201065z M956.0216064,68.8116684h-57.2893677V57.3750305h57.2893677c5.4055786,0,10.5748291,0,14.4063721,0.83815
	c1.9193726,0.410511,3.359314,1.0126572,4.3106079,1.7892075c0.8824463,0.7526436,1.3752441,1.7003098,1.3752441,3.0790062
	s-0.4927979,2.326313-1.3752441,3.0789528c-0.9512939,0.7971191-2.3912354,1.3787003-4.3106079,1.7892151
	c-3.831543,0.8381958-9.0007935,0.8381958-14.4063721,0.8381958V68.8116684z M436.1096497,3.8110816l49.3217163,74.3265076
	L457.8847961,119.63871h28.4699097L563.2230225,3.8110816h-28.4494629l-35.8837891,54.0360603L463.0297852,3.8110816H436.1096497z"
	/>
</svg>
