<?xml version="1.0" encoding="utf-8"?>
<!-- Generator: Adobe Illustrator 28.0.0, SVG Export Plug-In . SVG Version: 6.00 Build 0)  -->
<svg version="1.1" id="Слой_1" xmlns="http://www.w3.org/2000/svg" xmlns:xlink="http://www.w3.org/1999/xlink" x="0px" y="0px"
	 viewBox="0 0 1000 1000" enable-background="new 0 0 1000 1000" xml:space="preserve">
<path fill="#D60000" d="M0,367.6439514c0-128.6419373,0-193.0106201,25.1428528-242.239151
	c22.0000763-43.2300568,57.238205-78.4613647,100.4760818-100.4571762C174.7618713,0,239.0474854,0,367.7146606,0h264.3812866
	c128.666687,0,193.0479736,0,242.2854004,25.1380825c43.2373657,21.99576,78.4746704,57.227066,100.4747314,100.4571152
	C1000,174.7285309,1000,239.097229,1000,367.8358459v264.3283386c0,128.6439209,0,193.1060181-25.1439209,242.2398682
	c-22.000061,43.2297974-57.2373657,78.4620972-100.4747314,100.4570923C825.2373657,1000,760.8560791,1000,632.0959473,1000
	H367.7146606c-128.6671753,0-193.1431885,0-242.2861328-25.138855
	c-43.2381287-21.9949951-78.476265-57.2272949-100.4761658-100.4570923C-0.0000024,825.0808105,0,760.7121582,0,632.0707397
	V367.7398987V367.6439514z"/>
<path fill="#FFFFFF" d="M382.3888855,542c0,0-0.0959473,0-0.1918945,0H382.3888855v-2.9520264
	c16.4747314-8.2828369,29.7146301-19.805542,39.7146606-34.6590576
	c10.0934143-15.138916,15.1414185-32.0884094,15.1414185-51.8939514c0-19.8055725-5.6187134-37.7070923-16.9520264-53.1338501
	c-10.8560791-15.9014893-26.4772644-28.1843567-47.0480042-37.0404053
	c-20.0959473-8.7601318-43.808075-13.1414185-71.2373657-13.1414185H184.8643951v418.0176697h141.9058075
	c31.808075,0,59.2373657-5.1439209,82.5707092-15.6161499c23.3333435-10.2853394,41.0479736-24.6641235,53.0479736-42.944458
	c12.5707092-18.2827759,18.666687-39.2322998,18.666687-62.6565552c0-23.4216919-8.5732422-51.6085815-25.9065857-69.8914185
	C437.9115906,557.4267578,413.722229,546.1893921,382.3888855,542z M293.8156433,420.2146301
	c18.4772949,0,32.7626343,4.3788147,42.8585815,13.138916c10.0959778,8.474762,15.1414185,20.1868591,15.1414185,35.2322998
	c0,15.0454712-4.9519958,27.5177002-15.1414185,37.0404053c-10.0959473,9.2373962-24.6666565,13.7121277-43.9999695,13.7121277
	h-24.2853699v-99.1237488H293.8156433z M376.5782776,682.4495239
	c-12.5706787,9.2373047-30.1893921,13.7120972-53.0479736,13.7120972h-54.9520264V584.4696655h53.8106079
	c23.3333435,0,41.2373962,4.8560791,53.7146301,14.3762817c12.8560791,9.2373657,19.333374,22.5681763,19.333374,41.2322998
	c0,18.6616211-6.191925,32.8510742-18.666687,42.3712769H376.5782776z"/>
<path fill="#FFFFFF" d="M603.4292603,671.6868896h-2.8585205V489.4343262h-74v275.6616211h88.9545288l122.5707397-183.8686523
	h2.8560181v183.8686523h74.0959473V489.4343262H726L603.4292603,671.6868896z"/>
<path fill="#FFFFFF" d="M717.5202026,262.4343567c-5.9040527,0.0959473-10.5707397,2.0934143-14,5.808075
	c-3.333374,3.808075-4.9520264,9.0454407-4.9520264,15.7120972c0,6.6641541,1.6186523,11.9015198,4.9520264,15.7096252
	c3.4292603,3.8106079,8.2853394,5.6186829,14,5.6186829s10.1919556-1.808075,13.5252075-5.6186829
	c3.333374-3.9040527,4.9520264-9.0454712,4.9520264-15.7096252c0-6.6666565-1.7145996-11.808075-4.9520264-15.6161499
	C727.6161499,264.4343567,723.138916,262.4343567,717.5202026,262.4343567z"/>
<path fill="#FFFFFF" d="M755.1439209,163.0217285c-70.5706787,0-127.8080444,57.2272491-127.8080444,127.7863464
	c0,70.558075,57.2373657,127.7853699,127.8080444,127.7853699c70.5733032,0,127.8106079-57.2272949,127.8106079-127.7853699
	C882.9545288,220.2489777,825.7172241,163.0217285,755.1439209,163.0217285z M756.0025635,306.3282776
	c-3.333374,6.474762-7.9040527,11.5202026-13.7146606,14.9494934c-5.6187134,3.4267578-11.8106079,5.1414185-18.4772949,5.1414185
	c-6.666626,0-10-1.0479736-14.5706787-3.1413879c-4.3813477-2.0000305-7.7147217-4.8560791-10.1893921-8.474762h-0.7626343
	v40.4671631h-24.5707397V243.1017761h23.1414185v11.236618h0.7626343c2.5706787-3.9997559,6.0959473-7.1421814,10.8560791-9.4272766
	c4.666626-2.3805695,9.8105469-3.6184387,15.2399292-3.6184387c6.5706787,0,12.7600098,1.523468,18.4746704,5.1419067
	c5.7146606,3.4277954,10.3813477,8.4745026,13.7146606,14.9492645c3.4292603,6.5707092,5.1439819,13.997467,5.1439819,22.4721985
	c0,8.474762-1.8106689,15.9015198-5.1439819,22.3762817L756.0025635,306.3282776z M822.1919556,321.1818237
	c-3.8081665,9.2373657-7.2374268,16.1868896-10.5707397,20.9494629c-3.1439209,4.8560791-6.7626343,8.1894226-10.7625732,10.1869202
	c-4.000061,1.9999695-9.0480347,3.0479736-15.3334351,3.0479736h-10.3812866v-22.7575989h9.4293213
	c2.8585815,0,5.1439209-0.7626343,7.0479736-2.3812866c1.8106079-1.5227356,3.5227661-3.9040527,4.8560791-7.0454712
	l0.9544678-2.3813171L759.7171631,243.29216h26.5706787l22.9520874,50.6573334h0.7625732l19.8081055-50.6573334h24.2878418
	L822.1919556,321.1818237z"/>
</svg>
